<svg xmlns="http://www.w3.org/2000/svg" viewBox="0 0 920 291" width="920" height="291">
<defs>
  <marker id="ah" viewBox="0 0 10 10" refX="9" refY="5" markerWidth="7" markerHeight="7" orient="auto-start-reverse">
    <path d="M0,0 L10,5 L0,10 z" fill="#9ca3af"/>
  </marker>
  <marker id="ah-2563eb" viewBox="0 0 10 10" refX="9" refY="5" markerWidth="7" markerHeight="7" orient="auto-start-reverse">
    <path d="M0,0 L10,5 L0,10 z" fill="#2563eb"/>
  </marker>
  <marker id="ah-7c3aed" viewBox="0 0 10 10" refX="9" refY="5" markerWidth="7" markerHeight="7" orient="auto-start-reverse">
    <path d="M0,0 L10,5 L0,10 z" fill="#7c3aed"/>
  </marker>
  <marker id="ah-dc2626" viewBox="0 0 10 10" refX="9" refY="5" markerWidth="7" markerHeight="7" orient="auto-start-reverse">
    <path d="M0,0 L10,5 L0,10 z" fill="#dc2626"/>
  </marker>
  <marker id="ah-ca8a04" viewBox="0 0 10 10" refX="9" refY="5" markerWidth="7" markerHeight="7" orient="auto-start-reverse">
    <path d="M0,0 L10,5 L0,10 z" fill="#ca8a04"/>
  </marker>
  <marker id="ah-16a34a" viewBox="0 0 10 10" refX="9" refY="5" markerWidth="7" markerHeight="7" orient="auto-start-reverse">
    <path d="M0,0 L10,5 L0,10 z" fill="#16a34a"/>
  </marker>
  <marker id="ah-111827" viewBox="0 0 10 10" refX="9" refY="5" markerWidth="7" markerHeight="7" orient="auto-start-reverse">
    <path d="M0,0 L10,5 L0,10 z" fill="#111827"/>
  </marker>
  <marker id="ah-9ca3af" viewBox="0 0 10 10" refX="9" refY="5" markerWidth="7" markerHeight="7" orient="auto-start-reverse">
    <path d="M0,0 L10,5 L0,10 z" fill="#9ca3af"/>
  </marker>
  <marker id="ah-ea580c" viewBox="0 0 10 10" refX="9" refY="5" markerWidth="7" markerHeight="7" orient="auto-start-reverse">
    <path d="M0,0 L10,5 L0,10 z" fill="#ea580c"/>
  </marker>
  <marker id="ah-db2777" viewBox="0 0 10 10" refX="9" refY="5" markerWidth="7" markerHeight="7" orient="auto-start-reverse">
    <path d="M0,0 L10,5 L0,10 z" fill="#db2777"/>
  </marker>
  <marker id="ah-6b7280" viewBox="0 0 10 10" refX="9" refY="5" markerWidth="7" markerHeight="7" orient="auto-start-reverse">
    <path d="M0,0 L10,5 L0,10 z" fill="#6b7280"/>
  </marker>
</defs>
<rect width="920" height="291" fill="#ffffff"/>
<g font-family="Segoe UI, system-ui, -apple-system, Helvetica, Arial, sans-serif" fill="#111827" font-size="12">
<text x="460" y="24" font-size="15" text-anchor="middle" fill="#111827" font-weight="600">A LeNet-5-inspired ConvNet  ·  10 digit classes  ·  ~62 K parameters</text>
<text x="460" y="42" font-size="11.5" text-anchor="middle" fill="#6b7280" font-weight="normal">CONV → POOL repeated, then fully connected layers, then softmax — the standard template</text>
<polygon points="28,115 42.9572,105.833 128.957,105.833 114,115" fill="#eceef1" stroke="#6b7280" stroke-width="1.15"/>
<polygon points="114,115 128.957,105.833 128.957,191.833 114,201" fill="#c3c6cc" stroke="#6b7280" stroke-width="1.15"/>
<polygon points="28,115 114,115 114,201 28,201" fill="#e5e7eb" stroke="#6b7280" stroke-width="1.3"/>
<text x="71" y="161.96" font-size="11" text-anchor="middle" fill="#111827" font-weight="600">Input</text>
<text x="71" y="217" font-size="11" text-anchor="middle" fill="#111827" font-weight="600">32×32×3</text>
<polygon points="155.208,117.231 173.37,106.099 254.908,106.099 236.746,117.231" fill="#cef9dd" stroke="#16a34a" stroke-width="1.15"/>
<polygon points="236.746,117.231 254.908,106.099 254.908,187.637 236.746,198.769" fill="#a0d3b5" stroke="#16a34a" stroke-width="1.15"/>
<polygon points="155.208,117.231 236.746,117.231 236.746,198.769 155.208,198.769" fill="#bbf7d0" stroke="#16a34a" stroke-width="1.3"/>
<text x="195.977" y="161.96" font-size="11" text-anchor="middle" fill="#111827" font-weight="600">CONV</text>
<text x="195.977" y="214.769" font-size="11" text-anchor="middle" fill="#111827" font-weight="600">28×28×6</text>
<polygon points="281.159,125.984 299.321,114.852 363.353,114.852 345.191,125.984" fill="#d1e5fe" stroke="#2563eb" stroke-width="1.15"/>
<polygon points="345.191,125.984 363.353,114.852 363.353,178.884 345.191,190.016" fill="#a3bcdc" stroke="#2563eb" stroke-width="1.15"/>
<polygon points="281.159,125.984 345.191,125.984 345.191,190.016 281.159,190.016" fill="#bfdbfe" stroke="#2563eb" stroke-width="1.3"/>
<text x="313.175" y="161.96" font-size="11" text-anchor="middle" fill="#111827" font-weight="600">POOL</text>
<text x="313.175" y="206.016" font-size="11" text-anchor="middle" fill="#111827" font-weight="600">14×14×6</text>
<polygon points="389.604,128.925 414.404,113.725 472.553,113.725 447.753,128.925" fill="#cef9dd" stroke="#16a34a" stroke-width="1.15"/>
<polygon points="447.753,128.925 472.553,113.725 472.553,171.875 447.753,187.075" fill="#a0d3b5" stroke="#16a34a" stroke-width="1.15"/>
<polygon points="389.604,128.925 447.753,128.925 447.753,187.075 389.604,187.075" fill="#bbf7d0" stroke="#16a34a" stroke-width="1.3"/>
<text x="418.679" y="161.96" font-size="11" text-anchor="middle" fill="#111827" font-weight="600">CONV</text>
<text x="418.679" y="203.075" font-size="11" text-anchor="middle" fill="#111827" font-weight="600">10×10×16</text>
<polygon points="498.804,133.183 523.604,117.983 573.238,117.983 548.438,133.183" fill="#d1e5fe" stroke="#2563eb" stroke-width="1.15"/>
<polygon points="548.438,133.183 573.238,117.983 573.238,167.617 548.438,182.817" fill="#a3bcdc" stroke="#2563eb" stroke-width="1.15"/>
<polygon points="498.804,133.183 548.438,133.183 548.438,182.817 498.804,182.817" fill="#bfdbfe" stroke="#2563eb" stroke-width="1.3"/>
<text x="523.621" y="161.96" font-size="11" text-anchor="middle" fill="#111827" font-weight="600">POOL</text>
<text x="523.621" y="198.817" font-size="11" text-anchor="middle" fill="#111827" font-weight="600">5×5×16</text>
<polygon points="599.489,119 606.929,114.44 652.929,114.44 645.489,119" fill="#fef4ab" stroke="#ca8a04" stroke-width="1.15"/>
<polygon points="645.489,119 652.929,114.44 652.929,192.44 645.489,197" fill="#d8cd7a" stroke="#ca8a04" stroke-width="1.15"/>
<polygon points="599.489,119 645.489,119 645.489,197 599.489,197" fill="#fef08a" stroke="#ca8a04" stroke-width="1.3"/>
<text x="622.489" y="161.24" font-size="9" text-anchor="middle" fill="#111827" font-weight="600">Flatten</text>
<text x="622.489" y="213" font-size="11" text-anchor="middle" fill="#111827" font-weight="600">400</text>
<polygon points="679.179,127.784 686.619,123.224 732.619,123.224 725.179,127.784" fill="#fee2c2" stroke="#ea580c" stroke-width="1.15"/>
<polygon points="725.179,127.784 732.619,123.224 732.619,183.656 725.179,188.216" fill="#d8b895" stroke="#ea580c" stroke-width="1.15"/>
<polygon points="679.179,127.784 725.179,127.784 725.179,188.216 679.179,188.216" fill="#fed7aa" stroke="#ea580c" stroke-width="1.3"/>
<text x="702.179" y="161.24" font-size="9" text-anchor="middle" fill="#111827" font-weight="600">FC</text>
<text x="702.179" y="204.216" font-size="11" text-anchor="middle" fill="#111827" font-weight="600">120</text>
<polygon points="758.87,129.596 766.31,125.036 812.31,125.036 804.87,129.596" fill="#fee2c2" stroke="#ea580c" stroke-width="1.15"/>
<polygon points="804.87,129.596 812.31,125.036 812.31,181.844 804.87,186.404" fill="#d8b895" stroke="#ea580c" stroke-width="1.15"/>
<polygon points="758.87,129.596 804.87,129.596 804.87,186.404 758.87,186.404" fill="#fed7aa" stroke="#ea580c" stroke-width="1.3"/>
<text x="781.87" y="161.24" font-size="9" text-anchor="middle" fill="#111827" font-weight="600">FC</text>
<text x="781.87" y="202.404" font-size="11" text-anchor="middle" fill="#111827" font-weight="600">84</text>
<polygon points="838.56,136.007 846,131.447 892,131.447 884.56,136.007" fill="#fed9d9" stroke="#dc2626" stroke-width="1.15"/>
<polygon points="884.56,136.007 892,131.447 892,175.433 884.56,179.993" fill="#d8aeb0" stroke="#dc2626" stroke-width="1.15"/>
<polygon points="838.56,136.007 884.56,136.007 884.56,179.993 838.56,179.993" fill="#fecaca" stroke="#dc2626" stroke-width="1.3"/>
<text x="861.56" y="161.24" font-size="9" text-anchor="middle" fill="#111827" font-weight="600">Output</text>
<text x="861.56" y="195.993" font-size="11" text-anchor="middle" fill="#111827" font-weight="600">10</text>
<line x1="130.957" y1="158" x2="151.208" y2="158" stroke="#9ca3af" stroke-width="1.4" marker-end="url(#ah-9ca3af)"/>
<text x="142.082" y="139" font-size="9.5" text-anchor="middle" fill="#6b7280" font-weight="normal">convolution 5×5×3,</text>
<text x="142.082" y="150" font-size="9.5" text-anchor="middle" fill="#6b7280" font-weight="normal">6 filters</text>
<line x1="256.908" y1="158" x2="277.159" y2="158" stroke="#9ca3af" stroke-width="1.4" marker-end="url(#ah-9ca3af)"/>
<text x="268.034" y="139" font-size="9.5" text-anchor="middle" fill="#6b7280" font-weight="normal">max pool</text>
<text x="268.034" y="150" font-size="9.5" text-anchor="middle" fill="#6b7280" font-weight="normal">f=2, s=2</text>
<line x1="365.353" y1="158" x2="385.604" y2="158" stroke="#9ca3af" stroke-width="1.4" marker-end="url(#ah-9ca3af)"/>
<text x="376.479" y="139" font-size="9.5" text-anchor="middle" fill="#6b7280" font-weight="normal">convolution 5×5×6,</text>
<text x="376.479" y="150" font-size="9.5" text-anchor="middle" fill="#6b7280" font-weight="normal">16 filters</text>
<line x1="474.553" y1="158" x2="494.804" y2="158" stroke="#9ca3af" stroke-width="1.4" marker-end="url(#ah-9ca3af)"/>
<text x="485.679" y="139" font-size="9.5" text-anchor="middle" fill="#6b7280" font-weight="normal">max pool</text>
<text x="485.679" y="150" font-size="9.5" text-anchor="middle" fill="#6b7280" font-weight="normal">f=2, s=2</text>
<line x1="575.238" y1="158" x2="595.489" y2="158" stroke="#9ca3af" stroke-width="1.4" marker-end="url(#ah-9ca3af)"/>
<text x="586.364" y="139" font-size="9.5" text-anchor="middle" fill="#6b7280" font-weight="normal">flatten</text>
<text x="586.364" y="150" font-size="9.5" text-anchor="middle" fill="#6b7280" font-weight="normal">5·5·16</text>
<line x1="654.929" y1="158" x2="675.179" y2="158" stroke="#9ca3af" stroke-width="1.4" marker-end="url(#ah-9ca3af)"/>
<text x="666.054" y="139" font-size="9.5" text-anchor="middle" fill="#6b7280" font-weight="normal">fully</text>
<text x="666.054" y="150" font-size="9.5" text-anchor="middle" fill="#6b7280" font-weight="normal">connected</text>
<line x1="734.619" y1="158" x2="754.87" y2="158" stroke="#9ca3af" stroke-width="1.4" marker-end="url(#ah-9ca3af)"/>
<text x="745.744" y="139" font-size="9.5" text-anchor="middle" fill="#6b7280" font-weight="normal">fully</text>
<text x="745.744" y="150" font-size="9.5" text-anchor="middle" fill="#6b7280" font-weight="normal">connected</text>
<line x1="814.31" y1="158" x2="834.56" y2="158" stroke="#9ca3af" stroke-width="1.4" marker-end="url(#ah-9ca3af)"/>
<text x="825.435" y="139" font-size="9.5" text-anchor="middle" fill="#6b7280" font-weight="normal">softmax,</text>
<text x="825.435" y="150" font-size="9.5" text-anchor="middle" fill="#6b7280" font-weight="normal">10 classes</text>
<rect x="28" y="242" width="11" height="11" rx="2" fill="#e5e7eb" stroke="#6b7280" stroke-width="1.1"/>
<text x="44" y="251" font-size="10.5" text-anchor="start" fill="#6b7280" font-weight="normal">input</text>
<rect x="100.55" y="242" width="11" height="11" rx="2" fill="#bbf7d0" stroke="#16a34a" stroke-width="1.1"/>
<text x="116.55" y="251" font-size="10.5" text-anchor="start" fill="#6b7280" font-weight="normal">CONV</text>
<rect x="166.59" y="242" width="11" height="11" rx="2" fill="#bfdbfe" stroke="#2563eb" stroke-width="1.1"/>
<text x="182.59" y="251" font-size="10.5" text-anchor="start" fill="#6b7280" font-weight="normal">POOL</text>
<rect x="232.63" y="242" width="11" height="11" rx="2" fill="#fef08a" stroke="#ca8a04" stroke-width="1.1"/>
<text x="248.63" y="251" font-size="10.5" text-anchor="start" fill="#6b7280" font-weight="normal">flatten</text>
<rect x="318.2" y="242" width="11" height="11" rx="2" fill="#fed7aa" stroke="#ea580c" stroke-width="1.1"/>
<text x="334.2" y="251" font-size="10.5" text-anchor="start" fill="#6b7280" font-weight="normal">FC</text>
<rect x="371.22" y="242" width="11" height="11" rx="2" fill="#fecaca" stroke="#dc2626" stroke-width="1.1"/>
<text x="387.22" y="251" font-size="10.5" text-anchor="start" fill="#6b7280" font-weight="normal">softmax / ReLU</text>
<text x="460" y="275" font-size="10.5" text-anchor="middle" fill="#6b7280" font-weight="normal">Counting only layers with weights, CONV1+POOL1 together are layer 1 and CONV2+POOL2 are layer 2.</text>
</g>
</svg>
