<svg xmlns="http://www.w3.org/2000/svg" viewBox="0 0 920 384" width="920" height="384">
<defs>
  <marker id="ah" viewBox="0 0 10 10" refX="9" refY="5" markerWidth="6" markerHeight="6" orient="auto-start-reverse">
    <path d="M0,0 L10,5 L0,10 z" fill="#9ca3af"/>
  </marker>
</defs>
<rect width="920" height="384" fill="#ffffff"/>
<g font-family="Segoe UI, system-ui, -apple-system, Helvetica, Arial, sans-serif" fill="#111827" font-size="12">
<text x="460" y="24" font-size="15" text-anchor="middle" fill="#111827" font-weight="600">The sign of the output encodes the direction of the transition</text>
<text x="460" y="42" font-size="11.5" text-anchor="middle" fill="#6b7280" font-weight="normal">the same filter, with the image flipped left to right</text>
<text x="44" y="76" font-size="12" text-anchor="start" fill="#111827" font-weight="600">Light on the left, dark on the right</text>
<rect x="44" y="92" width="22" height="22" fill="#fafafa" stroke="#9ca3af" stroke-width="1"/>
<text x="55" y="106.96" font-size="11" text-anchor="middle" fill="#111827" font-weight="normal">10</text>
<rect x="66" y="92" width="22" height="22" fill="#fafafa" stroke="#9ca3af" stroke-width="1"/>
<text x="77" y="106.96" font-size="11" text-anchor="middle" fill="#111827" font-weight="normal">10</text>
<rect x="88" y="92" width="22" height="22" fill="#fafafa" stroke="#9ca3af" stroke-width="1"/>
<text x="99" y="106.96" font-size="11" text-anchor="middle" fill="#111827" font-weight="normal">10</text>
<rect x="110" y="92" width="22" height="22" fill="#222222" stroke="#9ca3af" stroke-width="1"/>
<text x="121" y="106.96" font-size="11" text-anchor="middle" fill="#ffffff" font-weight="normal">0</text>
<rect x="132" y="92" width="22" height="22" fill="#222222" stroke="#9ca3af" stroke-width="1"/>
<text x="143" y="106.96" font-size="11" text-anchor="middle" fill="#ffffff" font-weight="normal">0</text>
<rect x="154" y="92" width="22" height="22" fill="#222222" stroke="#9ca3af" stroke-width="1"/>
<text x="165" y="106.96" font-size="11" text-anchor="middle" fill="#ffffff" font-weight="normal">0</text>
<rect x="44" y="114" width="22" height="22" fill="#fafafa" stroke="#9ca3af" stroke-width="1"/>
<text x="55" y="128.96" font-size="11" text-anchor="middle" fill="#111827" font-weight="normal">10</text>
<rect x="66" y="114" width="22" height="22" fill="#fafafa" stroke="#9ca3af" stroke-width="1"/>
<text x="77" y="128.96" font-size="11" text-anchor="middle" fill="#111827" font-weight="normal">10</text>
<rect x="88" y="114" width="22" height="22" fill="#fafafa" stroke="#9ca3af" stroke-width="1"/>
<text x="99" y="128.96" font-size="11" text-anchor="middle" fill="#111827" font-weight="normal">10</text>
<rect x="110" y="114" width="22" height="22" fill="#222222" stroke="#9ca3af" stroke-width="1"/>
<text x="121" y="128.96" font-size="11" text-anchor="middle" fill="#ffffff" font-weight="normal">0</text>
<rect x="132" y="114" width="22" height="22" fill="#222222" stroke="#9ca3af" stroke-width="1"/>
<text x="143" y="128.96" font-size="11" text-anchor="middle" fill="#ffffff" font-weight="normal">0</text>
<rect x="154" y="114" width="22" height="22" fill="#222222" stroke="#9ca3af" stroke-width="1"/>
<text x="165" y="128.96" font-size="11" text-anchor="middle" fill="#ffffff" font-weight="normal">0</text>
<rect x="44" y="136" width="22" height="22" fill="#fafafa" stroke="#9ca3af" stroke-width="1"/>
<text x="55" y="150.96" font-size="11" text-anchor="middle" fill="#111827" font-weight="normal">10</text>
<rect x="66" y="136" width="22" height="22" fill="#fafafa" stroke="#9ca3af" stroke-width="1"/>
<text x="77" y="150.96" font-size="11" text-anchor="middle" fill="#111827" font-weight="normal">10</text>
<rect x="88" y="136" width="22" height="22" fill="#fafafa" stroke="#9ca3af" stroke-width="1"/>
<text x="99" y="150.96" font-size="11" text-anchor="middle" fill="#111827" font-weight="normal">10</text>
<rect x="110" y="136" width="22" height="22" fill="#222222" stroke="#9ca3af" stroke-width="1"/>
<text x="121" y="150.96" font-size="11" text-anchor="middle" fill="#ffffff" font-weight="normal">0</text>
<rect x="132" y="136" width="22" height="22" fill="#222222" stroke="#9ca3af" stroke-width="1"/>
<text x="143" y="150.96" font-size="11" text-anchor="middle" fill="#ffffff" font-weight="normal">0</text>
<rect x="154" y="136" width="22" height="22" fill="#222222" stroke="#9ca3af" stroke-width="1"/>
<text x="165" y="150.96" font-size="11" text-anchor="middle" fill="#ffffff" font-weight="normal">0</text>
<rect x="44" y="158" width="22" height="22" fill="#fafafa" stroke="#9ca3af" stroke-width="1"/>
<text x="55" y="172.96" font-size="11" text-anchor="middle" fill="#111827" font-weight="normal">10</text>
<rect x="66" y="158" width="22" height="22" fill="#fafafa" stroke="#9ca3af" stroke-width="1"/>
<text x="77" y="172.96" font-size="11" text-anchor="middle" fill="#111827" font-weight="normal">10</text>
<rect x="88" y="158" width="22" height="22" fill="#fafafa" stroke="#9ca3af" stroke-width="1"/>
<text x="99" y="172.96" font-size="11" text-anchor="middle" fill="#111827" font-weight="normal">10</text>
<rect x="110" y="158" width="22" height="22" fill="#222222" stroke="#9ca3af" stroke-width="1"/>
<text x="121" y="172.96" font-size="11" text-anchor="middle" fill="#ffffff" font-weight="normal">0</text>
<rect x="132" y="158" width="22" height="22" fill="#222222" stroke="#9ca3af" stroke-width="1"/>
<text x="143" y="172.96" font-size="11" text-anchor="middle" fill="#ffffff" font-weight="normal">0</text>
<rect x="154" y="158" width="22" height="22" fill="#222222" stroke="#9ca3af" stroke-width="1"/>
<text x="165" y="172.96" font-size="11" text-anchor="middle" fill="#ffffff" font-weight="normal">0</text>
<rect x="44" y="180" width="22" height="22" fill="#fafafa" stroke="#9ca3af" stroke-width="1"/>
<text x="55" y="194.96" font-size="11" text-anchor="middle" fill="#111827" font-weight="normal">10</text>
<rect x="66" y="180" width="22" height="22" fill="#fafafa" stroke="#9ca3af" stroke-width="1"/>
<text x="77" y="194.96" font-size="11" text-anchor="middle" fill="#111827" font-weight="normal">10</text>
<rect x="88" y="180" width="22" height="22" fill="#fafafa" stroke="#9ca3af" stroke-width="1"/>
<text x="99" y="194.96" font-size="11" text-anchor="middle" fill="#111827" font-weight="normal">10</text>
<rect x="110" y="180" width="22" height="22" fill="#222222" stroke="#9ca3af" stroke-width="1"/>
<text x="121" y="194.96" font-size="11" text-anchor="middle" fill="#ffffff" font-weight="normal">0</text>
<rect x="132" y="180" width="22" height="22" fill="#222222" stroke="#9ca3af" stroke-width="1"/>
<text x="143" y="194.96" font-size="11" text-anchor="middle" fill="#ffffff" font-weight="normal">0</text>
<rect x="154" y="180" width="22" height="22" fill="#222222" stroke="#9ca3af" stroke-width="1"/>
<text x="165" y="194.96" font-size="11" text-anchor="middle" fill="#ffffff" font-weight="normal">0</text>
<rect x="44" y="202" width="22" height="22" fill="#fafafa" stroke="#9ca3af" stroke-width="1"/>
<text x="55" y="216.96" font-size="11" text-anchor="middle" fill="#111827" font-weight="normal">10</text>
<rect x="66" y="202" width="22" height="22" fill="#fafafa" stroke="#9ca3af" stroke-width="1"/>
<text x="77" y="216.96" font-size="11" text-anchor="middle" fill="#111827" font-weight="normal">10</text>
<rect x="88" y="202" width="22" height="22" fill="#fafafa" stroke="#9ca3af" stroke-width="1"/>
<text x="99" y="216.96" font-size="11" text-anchor="middle" fill="#111827" font-weight="normal">10</text>
<rect x="110" y="202" width="22" height="22" fill="#222222" stroke="#9ca3af" stroke-width="1"/>
<text x="121" y="216.96" font-size="11" text-anchor="middle" fill="#ffffff" font-weight="normal">0</text>
<rect x="132" y="202" width="22" height="22" fill="#222222" stroke="#9ca3af" stroke-width="1"/>
<text x="143" y="216.96" font-size="11" text-anchor="middle" fill="#ffffff" font-weight="normal">0</text>
<rect x="154" y="202" width="22" height="22" fill="#222222" stroke="#9ca3af" stroke-width="1"/>
<text x="165" y="216.96" font-size="11" text-anchor="middle" fill="#ffffff" font-weight="normal">0</text>
<text x="191" y="164" font-size="17" text-anchor="middle" fill="#6b7280" font-weight="normal">∗</text>
<rect x="206" y="125" width="22" height="22" fill="#e14747" stroke="#9ca3af" stroke-width="1"/>
<text x="217" y="139.96" font-size="11" text-anchor="middle" fill="#ffffff" font-weight="normal">1</text>
<rect x="228" y="125" width="22" height="22" fill="#ffffff" stroke="#9ca3af" stroke-width="1"/>
<text x="239" y="139.96" font-size="11" text-anchor="middle" fill="#111827" font-weight="normal">0</text>
<rect x="250" y="125" width="22" height="22" fill="#467aee" stroke="#9ca3af" stroke-width="1"/>
<text x="261" y="139.96" font-size="11" text-anchor="middle" fill="#ffffff" font-weight="normal">-1</text>
<rect x="206" y="147" width="22" height="22" fill="#e14747" stroke="#9ca3af" stroke-width="1"/>
<text x="217" y="161.96" font-size="11" text-anchor="middle" fill="#ffffff" font-weight="normal">1</text>
<rect x="228" y="147" width="22" height="22" fill="#ffffff" stroke="#9ca3af" stroke-width="1"/>
<text x="239" y="161.96" font-size="11" text-anchor="middle" fill="#111827" font-weight="normal">0</text>
<rect x="250" y="147" width="22" height="22" fill="#467aee" stroke="#9ca3af" stroke-width="1"/>
<text x="261" y="161.96" font-size="11" text-anchor="middle" fill="#ffffff" font-weight="normal">-1</text>
<rect x="206" y="169" width="22" height="22" fill="#e14747" stroke="#9ca3af" stroke-width="1"/>
<text x="217" y="183.96" font-size="11" text-anchor="middle" fill="#ffffff" font-weight="normal">1</text>
<rect x="228" y="169" width="22" height="22" fill="#ffffff" stroke="#9ca3af" stroke-width="1"/>
<text x="239" y="183.96" font-size="11" text-anchor="middle" fill="#111827" font-weight="normal">0</text>
<rect x="250" y="169" width="22" height="22" fill="#467aee" stroke="#9ca3af" stroke-width="1"/>
<text x="261" y="183.96" font-size="11" text-anchor="middle" fill="#ffffff" font-weight="normal">-1</text>
<text x="287" y="164" font-size="17" text-anchor="middle" fill="#6b7280" font-weight="normal">=</text>
<rect x="302" y="114" width="22" height="22" fill="#ffffff" stroke="#9ca3af" stroke-width="1"/>
<text x="313" y="128.96" font-size="11" text-anchor="middle" fill="#111827" font-weight="normal">0</text>
<rect x="324" y="114" width="22" height="22" fill="#e14747" stroke="#9ca3af" stroke-width="1"/>
<text x="335" y="128.96" font-size="11" text-anchor="middle" fill="#ffffff" font-weight="normal">30</text>
<rect x="346" y="114" width="22" height="22" fill="#e14747" stroke="#9ca3af" stroke-width="1"/>
<text x="357" y="128.96" font-size="11" text-anchor="middle" fill="#ffffff" font-weight="normal">30</text>
<rect x="368" y="114" width="22" height="22" fill="#ffffff" stroke="#9ca3af" stroke-width="1"/>
<text x="379" y="128.96" font-size="11" text-anchor="middle" fill="#111827" font-weight="normal">0</text>
<rect x="302" y="136" width="22" height="22" fill="#ffffff" stroke="#9ca3af" stroke-width="1"/>
<text x="313" y="150.96" font-size="11" text-anchor="middle" fill="#111827" font-weight="normal">0</text>
<rect x="324" y="136" width="22" height="22" fill="#e14747" stroke="#9ca3af" stroke-width="1"/>
<text x="335" y="150.96" font-size="11" text-anchor="middle" fill="#ffffff" font-weight="normal">30</text>
<rect x="346" y="136" width="22" height="22" fill="#e14747" stroke="#9ca3af" stroke-width="1"/>
<text x="357" y="150.96" font-size="11" text-anchor="middle" fill="#ffffff" font-weight="normal">30</text>
<rect x="368" y="136" width="22" height="22" fill="#ffffff" stroke="#9ca3af" stroke-width="1"/>
<text x="379" y="150.96" font-size="11" text-anchor="middle" fill="#111827" font-weight="normal">0</text>
<rect x="302" y="158" width="22" height="22" fill="#ffffff" stroke="#9ca3af" stroke-width="1"/>
<text x="313" y="172.96" font-size="11" text-anchor="middle" fill="#111827" font-weight="normal">0</text>
<rect x="324" y="158" width="22" height="22" fill="#e14747" stroke="#9ca3af" stroke-width="1"/>
<text x="335" y="172.96" font-size="11" text-anchor="middle" fill="#ffffff" font-weight="normal">30</text>
<rect x="346" y="158" width="22" height="22" fill="#e14747" stroke="#9ca3af" stroke-width="1"/>
<text x="357" y="172.96" font-size="11" text-anchor="middle" fill="#ffffff" font-weight="normal">30</text>
<rect x="368" y="158" width="22" height="22" fill="#ffffff" stroke="#9ca3af" stroke-width="1"/>
<text x="379" y="172.96" font-size="11" text-anchor="middle" fill="#111827" font-weight="normal">0</text>
<rect x="302" y="180" width="22" height="22" fill="#ffffff" stroke="#9ca3af" stroke-width="1"/>
<text x="313" y="194.96" font-size="11" text-anchor="middle" fill="#111827" font-weight="normal">0</text>
<rect x="324" y="180" width="22" height="22" fill="#e14747" stroke="#9ca3af" stroke-width="1"/>
<text x="335" y="194.96" font-size="11" text-anchor="middle" fill="#ffffff" font-weight="normal">30</text>
<rect x="346" y="180" width="22" height="22" fill="#e14747" stroke="#9ca3af" stroke-width="1"/>
<text x="357" y="194.96" font-size="11" text-anchor="middle" fill="#ffffff" font-weight="normal">30</text>
<rect x="368" y="180" width="22" height="22" fill="#ffffff" stroke="#9ca3af" stroke-width="1"/>
<text x="379" y="194.96" font-size="11" text-anchor="middle" fill="#111827" font-weight="normal">0</text>
<text x="110" y="246" font-size="10" text-anchor="middle" fill="#6b7280" font-weight="normal">input</text>
<text x="239" y="246" font-size="10" text-anchor="middle" fill="#6b7280" font-weight="normal">filter</text>
<text x="346" y="246" font-size="10" text-anchor="middle" fill="#6b7280" font-weight="normal">output</text>
<text x="217" y="276" font-size="12" text-anchor="middle" fill="#dc2626" font-weight="600">positive output: light → dark</text>
<text x="516" y="76" font-size="12" text-anchor="start" fill="#111827" font-weight="600">Dark on the left, light on the right</text>
<rect x="516" y="92" width="22" height="22" fill="#222222" stroke="#9ca3af" stroke-width="1"/>
<text x="527" y="106.96" font-size="11" text-anchor="middle" fill="#ffffff" font-weight="normal">0</text>
<rect x="538" y="92" width="22" height="22" fill="#222222" stroke="#9ca3af" stroke-width="1"/>
<text x="549" y="106.96" font-size="11" text-anchor="middle" fill="#ffffff" font-weight="normal">0</text>
<rect x="560" y="92" width="22" height="22" fill="#222222" stroke="#9ca3af" stroke-width="1"/>
<text x="571" y="106.96" font-size="11" text-anchor="middle" fill="#ffffff" font-weight="normal">0</text>
<rect x="582" y="92" width="22" height="22" fill="#fafafa" stroke="#9ca3af" stroke-width="1"/>
<text x="593" y="106.96" font-size="11" text-anchor="middle" fill="#111827" font-weight="normal">10</text>
<rect x="604" y="92" width="22" height="22" fill="#fafafa" stroke="#9ca3af" stroke-width="1"/>
<text x="615" y="106.96" font-size="11" text-anchor="middle" fill="#111827" font-weight="normal">10</text>
<rect x="626" y="92" width="22" height="22" fill="#fafafa" stroke="#9ca3af" stroke-width="1"/>
<text x="637" y="106.96" font-size="11" text-anchor="middle" fill="#111827" font-weight="normal">10</text>
<rect x="516" y="114" width="22" height="22" fill="#222222" stroke="#9ca3af" stroke-width="1"/>
<text x="527" y="128.96" font-size="11" text-anchor="middle" fill="#ffffff" font-weight="normal">0</text>
<rect x="538" y="114" width="22" height="22" fill="#222222" stroke="#9ca3af" stroke-width="1"/>
<text x="549" y="128.96" font-size="11" text-anchor="middle" fill="#ffffff" font-weight="normal">0</text>
<rect x="560" y="114" width="22" height="22" fill="#222222" stroke="#9ca3af" stroke-width="1"/>
<text x="571" y="128.96" font-size="11" text-anchor="middle" fill="#ffffff" font-weight="normal">0</text>
<rect x="582" y="114" width="22" height="22" fill="#fafafa" stroke="#9ca3af" stroke-width="1"/>
<text x="593" y="128.96" font-size="11" text-anchor="middle" fill="#111827" font-weight="normal">10</text>
<rect x="604" y="114" width="22" height="22" fill="#fafafa" stroke="#9ca3af" stroke-width="1"/>
<text x="615" y="128.96" font-size="11" text-anchor="middle" fill="#111827" font-weight="normal">10</text>
<rect x="626" y="114" width="22" height="22" fill="#fafafa" stroke="#9ca3af" stroke-width="1"/>
<text x="637" y="128.96" font-size="11" text-anchor="middle" fill="#111827" font-weight="normal">10</text>
<rect x="516" y="136" width="22" height="22" fill="#222222" stroke="#9ca3af" stroke-width="1"/>
<text x="527" y="150.96" font-size="11" text-anchor="middle" fill="#ffffff" font-weight="normal">0</text>
<rect x="538" y="136" width="22" height="22" fill="#222222" stroke="#9ca3af" stroke-width="1"/>
<text x="549" y="150.96" font-size="11" text-anchor="middle" fill="#ffffff" font-weight="normal">0</text>
<rect x="560" y="136" width="22" height="22" fill="#222222" stroke="#9ca3af" stroke-width="1"/>
<text x="571" y="150.96" font-size="11" text-anchor="middle" fill="#ffffff" font-weight="normal">0</text>
<rect x="582" y="136" width="22" height="22" fill="#fafafa" stroke="#9ca3af" stroke-width="1"/>
<text x="593" y="150.96" font-size="11" text-anchor="middle" fill="#111827" font-weight="normal">10</text>
<rect x="604" y="136" width="22" height="22" fill="#fafafa" stroke="#9ca3af" stroke-width="1"/>
<text x="615" y="150.96" font-size="11" text-anchor="middle" fill="#111827" font-weight="normal">10</text>
<rect x="626" y="136" width="22" height="22" fill="#fafafa" stroke="#9ca3af" stroke-width="1"/>
<text x="637" y="150.96" font-size="11" text-anchor="middle" fill="#111827" font-weight="normal">10</text>
<rect x="516" y="158" width="22" height="22" fill="#222222" stroke="#9ca3af" stroke-width="1"/>
<text x="527" y="172.96" font-size="11" text-anchor="middle" fill="#ffffff" font-weight="normal">0</text>
<rect x="538" y="158" width="22" height="22" fill="#222222" stroke="#9ca3af" stroke-width="1"/>
<text x="549" y="172.96" font-size="11" text-anchor="middle" fill="#ffffff" font-weight="normal">0</text>
<rect x="560" y="158" width="22" height="22" fill="#222222" stroke="#9ca3af" stroke-width="1"/>
<text x="571" y="172.96" font-size="11" text-anchor="middle" fill="#ffffff" font-weight="normal">0</text>
<rect x="582" y="158" width="22" height="22" fill="#fafafa" stroke="#9ca3af" stroke-width="1"/>
<text x="593" y="172.96" font-size="11" text-anchor="middle" fill="#111827" font-weight="normal">10</text>
<rect x="604" y="158" width="22" height="22" fill="#fafafa" stroke="#9ca3af" stroke-width="1"/>
<text x="615" y="172.96" font-size="11" text-anchor="middle" fill="#111827" font-weight="normal">10</text>
<rect x="626" y="158" width="22" height="22" fill="#fafafa" stroke="#9ca3af" stroke-width="1"/>
<text x="637" y="172.96" font-size="11" text-anchor="middle" fill="#111827" font-weight="normal">10</text>
<rect x="516" y="180" width="22" height="22" fill="#222222" stroke="#9ca3af" stroke-width="1"/>
<text x="527" y="194.96" font-size="11" text-anchor="middle" fill="#ffffff" font-weight="normal">0</text>
<rect x="538" y="180" width="22" height="22" fill="#222222" stroke="#9ca3af" stroke-width="1"/>
<text x="549" y="194.96" font-size="11" text-anchor="middle" fill="#ffffff" font-weight="normal">0</text>
<rect x="560" y="180" width="22" height="22" fill="#222222" stroke="#9ca3af" stroke-width="1"/>
<text x="571" y="194.96" font-size="11" text-anchor="middle" fill="#ffffff" font-weight="normal">0</text>
<rect x="582" y="180" width="22" height="22" fill="#fafafa" stroke="#9ca3af" stroke-width="1"/>
<text x="593" y="194.96" font-size="11" text-anchor="middle" fill="#111827" font-weight="normal">10</text>
<rect x="604" y="180" width="22" height="22" fill="#fafafa" stroke="#9ca3af" stroke-width="1"/>
<text x="615" y="194.96" font-size="11" text-anchor="middle" fill="#111827" font-weight="normal">10</text>
<rect x="626" y="180" width="22" height="22" fill="#fafafa" stroke="#9ca3af" stroke-width="1"/>
<text x="637" y="194.96" font-size="11" text-anchor="middle" fill="#111827" font-weight="normal">10</text>
<rect x="516" y="202" width="22" height="22" fill="#222222" stroke="#9ca3af" stroke-width="1"/>
<text x="527" y="216.96" font-size="11" text-anchor="middle" fill="#ffffff" font-weight="normal">0</text>
<rect x="538" y="202" width="22" height="22" fill="#222222" stroke="#9ca3af" stroke-width="1"/>
<text x="549" y="216.96" font-size="11" text-anchor="middle" fill="#ffffff" font-weight="normal">0</text>
<rect x="560" y="202" width="22" height="22" fill="#222222" stroke="#9ca3af" stroke-width="1"/>
<text x="571" y="216.96" font-size="11" text-anchor="middle" fill="#ffffff" font-weight="normal">0</text>
<rect x="582" y="202" width="22" height="22" fill="#fafafa" stroke="#9ca3af" stroke-width="1"/>
<text x="593" y="216.96" font-size="11" text-anchor="middle" fill="#111827" font-weight="normal">10</text>
<rect x="604" y="202" width="22" height="22" fill="#fafafa" stroke="#9ca3af" stroke-width="1"/>
<text x="615" y="216.96" font-size="11" text-anchor="middle" fill="#111827" font-weight="normal">10</text>
<rect x="626" y="202" width="22" height="22" fill="#fafafa" stroke="#9ca3af" stroke-width="1"/>
<text x="637" y="216.96" font-size="11" text-anchor="middle" fill="#111827" font-weight="normal">10</text>
<text x="663" y="164" font-size="17" text-anchor="middle" fill="#6b7280" font-weight="normal">∗</text>
<rect x="678" y="125" width="22" height="22" fill="#e14747" stroke="#9ca3af" stroke-width="1"/>
<text x="689" y="139.96" font-size="11" text-anchor="middle" fill="#ffffff" font-weight="normal">1</text>
<rect x="700" y="125" width="22" height="22" fill="#ffffff" stroke="#9ca3af" stroke-width="1"/>
<text x="711" y="139.96" font-size="11" text-anchor="middle" fill="#111827" font-weight="normal">0</text>
<rect x="722" y="125" width="22" height="22" fill="#467aee" stroke="#9ca3af" stroke-width="1"/>
<text x="733" y="139.96" font-size="11" text-anchor="middle" fill="#ffffff" font-weight="normal">-1</text>
<rect x="678" y="147" width="22" height="22" fill="#e14747" stroke="#9ca3af" stroke-width="1"/>
<text x="689" y="161.96" font-size="11" text-anchor="middle" fill="#ffffff" font-weight="normal">1</text>
<rect x="700" y="147" width="22" height="22" fill="#ffffff" stroke="#9ca3af" stroke-width="1"/>
<text x="711" y="161.96" font-size="11" text-anchor="middle" fill="#111827" font-weight="normal">0</text>
<rect x="722" y="147" width="22" height="22" fill="#467aee" stroke="#9ca3af" stroke-width="1"/>
<text x="733" y="161.96" font-size="11" text-anchor="middle" fill="#ffffff" font-weight="normal">-1</text>
<rect x="678" y="169" width="22" height="22" fill="#e14747" stroke="#9ca3af" stroke-width="1"/>
<text x="689" y="183.96" font-size="11" text-anchor="middle" fill="#ffffff" font-weight="normal">1</text>
<rect x="700" y="169" width="22" height="22" fill="#ffffff" stroke="#9ca3af" stroke-width="1"/>
<text x="711" y="183.96" font-size="11" text-anchor="middle" fill="#111827" font-weight="normal">0</text>
<rect x="722" y="169" width="22" height="22" fill="#467aee" stroke="#9ca3af" stroke-width="1"/>
<text x="733" y="183.96" font-size="11" text-anchor="middle" fill="#ffffff" font-weight="normal">-1</text>
<text x="759" y="164" font-size="17" text-anchor="middle" fill="#6b7280" font-weight="normal">=</text>
<rect x="774" y="114" width="22" height="22" fill="#ffffff" stroke="#9ca3af" stroke-width="1"/>
<text x="785" y="128.96" font-size="11" text-anchor="middle" fill="#111827" font-weight="normal">0</text>
<rect x="796" y="114" width="22" height="22" fill="#467aee" stroke="#9ca3af" stroke-width="1"/>
<text x="807" y="128.96" font-size="11" text-anchor="middle" fill="#ffffff" font-weight="normal">-30</text>
<rect x="818" y="114" width="22" height="22" fill="#467aee" stroke="#9ca3af" stroke-width="1"/>
<text x="829" y="128.96" font-size="11" text-anchor="middle" fill="#ffffff" font-weight="normal">-30</text>
<rect x="840" y="114" width="22" height="22" fill="#ffffff" stroke="#9ca3af" stroke-width="1"/>
<text x="851" y="128.96" font-size="11" text-anchor="middle" fill="#111827" font-weight="normal">0</text>
<rect x="774" y="136" width="22" height="22" fill="#ffffff" stroke="#9ca3af" stroke-width="1"/>
<text x="785" y="150.96" font-size="11" text-anchor="middle" fill="#111827" font-weight="normal">0</text>
<rect x="796" y="136" width="22" height="22" fill="#467aee" stroke="#9ca3af" stroke-width="1"/>
<text x="807" y="150.96" font-size="11" text-anchor="middle" fill="#ffffff" font-weight="normal">-30</text>
<rect x="818" y="136" width="22" height="22" fill="#467aee" stroke="#9ca3af" stroke-width="1"/>
<text x="829" y="150.96" font-size="11" text-anchor="middle" fill="#ffffff" font-weight="normal">-30</text>
<rect x="840" y="136" width="22" height="22" fill="#ffffff" stroke="#9ca3af" stroke-width="1"/>
<text x="851" y="150.96" font-size="11" text-anchor="middle" fill="#111827" font-weight="normal">0</text>
<rect x="774" y="158" width="22" height="22" fill="#ffffff" stroke="#9ca3af" stroke-width="1"/>
<text x="785" y="172.96" font-size="11" text-anchor="middle" fill="#111827" font-weight="normal">0</text>
<rect x="796" y="158" width="22" height="22" fill="#467aee" stroke="#9ca3af" stroke-width="1"/>
<text x="807" y="172.96" font-size="11" text-anchor="middle" fill="#ffffff" font-weight="normal">-30</text>
<rect x="818" y="158" width="22" height="22" fill="#467aee" stroke="#9ca3af" stroke-width="1"/>
<text x="829" y="172.96" font-size="11" text-anchor="middle" fill="#ffffff" font-weight="normal">-30</text>
<rect x="840" y="158" width="22" height="22" fill="#ffffff" stroke="#9ca3af" stroke-width="1"/>
<text x="851" y="172.96" font-size="11" text-anchor="middle" fill="#111827" font-weight="normal">0</text>
<rect x="774" y="180" width="22" height="22" fill="#ffffff" stroke="#9ca3af" stroke-width="1"/>
<text x="785" y="194.96" font-size="11" text-anchor="middle" fill="#111827" font-weight="normal">0</text>
<rect x="796" y="180" width="22" height="22" fill="#467aee" stroke="#9ca3af" stroke-width="1"/>
<text x="807" y="194.96" font-size="11" text-anchor="middle" fill="#ffffff" font-weight="normal">-30</text>
<rect x="818" y="180" width="22" height="22" fill="#467aee" stroke="#9ca3af" stroke-width="1"/>
<text x="829" y="194.96" font-size="11" text-anchor="middle" fill="#ffffff" font-weight="normal">-30</text>
<rect x="840" y="180" width="22" height="22" fill="#ffffff" stroke="#9ca3af" stroke-width="1"/>
<text x="851" y="194.96" font-size="11" text-anchor="middle" fill="#111827" font-weight="normal">0</text>
<text x="582" y="246" font-size="10" text-anchor="middle" fill="#6b7280" font-weight="normal">input</text>
<text x="711" y="246" font-size="10" text-anchor="middle" fill="#6b7280" font-weight="normal">filter</text>
<text x="818" y="246" font-size="10" text-anchor="middle" fill="#6b7280" font-weight="normal">output</text>
<text x="689" y="276" font-size="12" text-anchor="middle" fill="#2563eb" font-weight="600">negative output: dark → light</text>
<line x1="460" y1="70" x2="460" y2="300" stroke="#9ca3af" stroke-width="1" stroke-dasharray="4 4"/>
<rect x="228" y="298" width="464" height="44" rx="3" fill="#f9fafb" stroke="#9ca3af" stroke-width="1.4"/>
<text x="342" y="318" font-size="11" text-anchor="middle" fill="#dc2626" font-weight="600">positive = bright on the left</text>
<line x1="460" y1="306" x2="460" y2="328" stroke="#9ca3af" stroke-width="1"/>
<text x="578" y="318" font-size="11" text-anchor="middle" fill="#2563eb" font-weight="600">negative = bright on the right</text>
<text x="460" y="336" font-size="10.5" text-anchor="middle" fill="#6b7280" font-weight="normal">take absolute values if only the presence of an edge matters</text>
<text x="460" y="376" font-size="10.5" text-anchor="middle" fill="#6b7280" font-weight="normal">Only the two middle columns respond, because those are the filter positions that span the boundary.</text>
</g>
</svg>
