<svg xmlns="http://www.w3.org/2000/svg" viewBox="0 0 920 318" width="920" height="318">
<defs>
  <marker id="ah" viewBox="0 0 10 10" refX="9" refY="5" markerWidth="7" markerHeight="7" orient="auto-start-reverse">
    <path d="M0,0 L10,5 L0,10 z" fill="#9ca3af"/>
  </marker>
  <marker id="ah-2563eb" viewBox="0 0 10 10" refX="9" refY="5" markerWidth="7" markerHeight="7" orient="auto-start-reverse">
    <path d="M0,0 L10,5 L0,10 z" fill="#2563eb"/>
  </marker>
  <marker id="ah-7c3aed" viewBox="0 0 10 10" refX="9" refY="5" markerWidth="7" markerHeight="7" orient="auto-start-reverse">
    <path d="M0,0 L10,5 L0,10 z" fill="#7c3aed"/>
  </marker>
  <marker id="ah-dc2626" viewBox="0 0 10 10" refX="9" refY="5" markerWidth="7" markerHeight="7" orient="auto-start-reverse">
    <path d="M0,0 L10,5 L0,10 z" fill="#dc2626"/>
  </marker>
  <marker id="ah-ca8a04" viewBox="0 0 10 10" refX="9" refY="5" markerWidth="7" markerHeight="7" orient="auto-start-reverse">
    <path d="M0,0 L10,5 L0,10 z" fill="#ca8a04"/>
  </marker>
  <marker id="ah-16a34a" viewBox="0 0 10 10" refX="9" refY="5" markerWidth="7" markerHeight="7" orient="auto-start-reverse">
    <path d="M0,0 L10,5 L0,10 z" fill="#16a34a"/>
  </marker>
  <marker id="ah-111827" viewBox="0 0 10 10" refX="9" refY="5" markerWidth="7" markerHeight="7" orient="auto-start-reverse">
    <path d="M0,0 L10,5 L0,10 z" fill="#111827"/>
  </marker>
  <marker id="ah-9ca3af" viewBox="0 0 10 10" refX="9" refY="5" markerWidth="7" markerHeight="7" orient="auto-start-reverse">
    <path d="M0,0 L10,5 L0,10 z" fill="#9ca3af"/>
  </marker>
  <marker id="ah-db2777" viewBox="0 0 10 10" refX="9" refY="5" markerWidth="7" markerHeight="7" orient="auto-start-reverse">
    <path d="M0,0 L10,5 L0,10 z" fill="#db2777"/>
  </marker>
  <marker id="ah-6b7280" viewBox="0 0 10 10" refX="9" refY="5" markerWidth="7" markerHeight="7" orient="auto-start-reverse">
    <path d="M0,0 L10,5 L0,10 z" fill="#6b7280"/>
  </marker>
</defs>
<rect width="920" height="318" fill="#ffffff"/>
<g font-family="Segoe UI, system-ui, -apple-system, Helvetica, Arial, sans-serif" fill="#111827" font-size="12">
<text x="460" y="24" font-size="15" text-anchor="middle" fill="#111827" font-weight="600">Uneven overlap is a checkerboard</text>
<text x="460" y="42" font-size="11.5" text-anchor="middle" fill="#6b7280" font-weight="normal">the number in each cell is how many f×f stamps cover it  ·  s = 2, four stamps</text>
<text x="196" y="72" font-size="12.5" text-anchor="middle" fill="#dc2626" font-weight="600">f = 3, s = 2  ·  not divisible</text>
<rect x="118" y="86" width="26" height="26" fill="#fef3c7" stroke="#9ca3af" stroke-width="1"/>
<text x="131" y="103.32" font-size="12" text-anchor="middle" fill="#111827" font-weight="normal">1</text>
<rect x="144" y="86" width="26" height="26" fill="#fef3c7" stroke="#9ca3af" stroke-width="1"/>
<text x="157" y="103.32" font-size="12" text-anchor="middle" fill="#111827" font-weight="normal">1</text>
<rect x="170" y="86" width="26" height="26" fill="#fdba74" stroke="#9ca3af" stroke-width="1"/>
<text x="183" y="103.32" font-size="12" text-anchor="middle" fill="#111827" font-weight="normal">2</text>
<rect x="196" y="86" width="26" height="26" fill="#fef3c7" stroke="#9ca3af" stroke-width="1"/>
<text x="209" y="103.32" font-size="12" text-anchor="middle" fill="#111827" font-weight="normal">1</text>
<rect x="222" y="86" width="26" height="26" fill="#fef3c7" stroke="#9ca3af" stroke-width="1"/>
<text x="235" y="103.32" font-size="12" text-anchor="middle" fill="#111827" font-weight="normal">1</text>
<rect x="248" y="86" width="26" height="26" fill="#f9fafb" stroke="#9ca3af" stroke-width="1"/>
<text x="261" y="103.32" font-size="12" text-anchor="middle" fill="#111827" font-weight="normal">0</text>
<rect x="118" y="112" width="26" height="26" fill="#fef3c7" stroke="#9ca3af" stroke-width="1"/>
<text x="131" y="129.32" font-size="12" text-anchor="middle" fill="#111827" font-weight="normal">1</text>
<rect x="144" y="112" width="26" height="26" fill="#fef3c7" stroke="#9ca3af" stroke-width="1"/>
<text x="157" y="129.32" font-size="12" text-anchor="middle" fill="#111827" font-weight="normal">1</text>
<rect x="170" y="112" width="26" height="26" fill="#fdba74" stroke="#9ca3af" stroke-width="1"/>
<text x="183" y="129.32" font-size="12" text-anchor="middle" fill="#111827" font-weight="normal">2</text>
<rect x="196" y="112" width="26" height="26" fill="#fef3c7" stroke="#9ca3af" stroke-width="1"/>
<text x="209" y="129.32" font-size="12" text-anchor="middle" fill="#111827" font-weight="normal">1</text>
<rect x="222" y="112" width="26" height="26" fill="#fef3c7" stroke="#9ca3af" stroke-width="1"/>
<text x="235" y="129.32" font-size="12" text-anchor="middle" fill="#111827" font-weight="normal">1</text>
<rect x="248" y="112" width="26" height="26" fill="#f9fafb" stroke="#9ca3af" stroke-width="1"/>
<text x="261" y="129.32" font-size="12" text-anchor="middle" fill="#111827" font-weight="normal">0</text>
<rect x="118" y="138" width="26" height="26" fill="#fdba74" stroke="#9ca3af" stroke-width="1"/>
<text x="131" y="155.32" font-size="12" text-anchor="middle" fill="#111827" font-weight="normal">2</text>
<rect x="144" y="138" width="26" height="26" fill="#fdba74" stroke="#9ca3af" stroke-width="1"/>
<text x="157" y="155.32" font-size="12" text-anchor="middle" fill="#111827" font-weight="normal">2</text>
<rect x="170" y="138" width="26" height="26" fill="#dc2626" stroke="#9ca3af" stroke-width="1"/>
<text x="183" y="155.32" font-size="12" text-anchor="middle" fill="#ffffff" font-weight="normal">4</text>
<rect x="196" y="138" width="26" height="26" fill="#fdba74" stroke="#9ca3af" stroke-width="1"/>
<text x="209" y="155.32" font-size="12" text-anchor="middle" fill="#111827" font-weight="normal">2</text>
<rect x="222" y="138" width="26" height="26" fill="#fdba74" stroke="#9ca3af" stroke-width="1"/>
<text x="235" y="155.32" font-size="12" text-anchor="middle" fill="#111827" font-weight="normal">2</text>
<rect x="248" y="138" width="26" height="26" fill="#f9fafb" stroke="#9ca3af" stroke-width="1"/>
<text x="261" y="155.32" font-size="12" text-anchor="middle" fill="#111827" font-weight="normal">0</text>
<rect x="118" y="164" width="26" height="26" fill="#fef3c7" stroke="#9ca3af" stroke-width="1"/>
<text x="131" y="181.32" font-size="12" text-anchor="middle" fill="#111827" font-weight="normal">1</text>
<rect x="144" y="164" width="26" height="26" fill="#fef3c7" stroke="#9ca3af" stroke-width="1"/>
<text x="157" y="181.32" font-size="12" text-anchor="middle" fill="#111827" font-weight="normal">1</text>
<rect x="170" y="164" width="26" height="26" fill="#fdba74" stroke="#9ca3af" stroke-width="1"/>
<text x="183" y="181.32" font-size="12" text-anchor="middle" fill="#111827" font-weight="normal">2</text>
<rect x="196" y="164" width="26" height="26" fill="#fef3c7" stroke="#9ca3af" stroke-width="1"/>
<text x="209" y="181.32" font-size="12" text-anchor="middle" fill="#111827" font-weight="normal">1</text>
<rect x="222" y="164" width="26" height="26" fill="#fef3c7" stroke="#9ca3af" stroke-width="1"/>
<text x="235" y="181.32" font-size="12" text-anchor="middle" fill="#111827" font-weight="normal">1</text>
<rect x="248" y="164" width="26" height="26" fill="#f9fafb" stroke="#9ca3af" stroke-width="1"/>
<text x="261" y="181.32" font-size="12" text-anchor="middle" fill="#111827" font-weight="normal">0</text>
<rect x="118" y="190" width="26" height="26" fill="#fef3c7" stroke="#9ca3af" stroke-width="1"/>
<text x="131" y="207.32" font-size="12" text-anchor="middle" fill="#111827" font-weight="normal">1</text>
<rect x="144" y="190" width="26" height="26" fill="#fef3c7" stroke="#9ca3af" stroke-width="1"/>
<text x="157" y="207.32" font-size="12" text-anchor="middle" fill="#111827" font-weight="normal">1</text>
<rect x="170" y="190" width="26" height="26" fill="#fdba74" stroke="#9ca3af" stroke-width="1"/>
<text x="183" y="207.32" font-size="12" text-anchor="middle" fill="#111827" font-weight="normal">2</text>
<rect x="196" y="190" width="26" height="26" fill="#fef3c7" stroke="#9ca3af" stroke-width="1"/>
<text x="209" y="207.32" font-size="12" text-anchor="middle" fill="#111827" font-weight="normal">1</text>
<rect x="222" y="190" width="26" height="26" fill="#fef3c7" stroke="#9ca3af" stroke-width="1"/>
<text x="235" y="207.32" font-size="12" text-anchor="middle" fill="#111827" font-weight="normal">1</text>
<rect x="248" y="190" width="26" height="26" fill="#f9fafb" stroke="#9ca3af" stroke-width="1"/>
<text x="261" y="207.32" font-size="12" text-anchor="middle" fill="#111827" font-weight="normal">0</text>
<rect x="118" y="216" width="26" height="26" fill="#f9fafb" stroke="#9ca3af" stroke-width="1"/>
<text x="131" y="233.32" font-size="12" text-anchor="middle" fill="#111827" font-weight="normal">0</text>
<rect x="144" y="216" width="26" height="26" fill="#f9fafb" stroke="#9ca3af" stroke-width="1"/>
<text x="157" y="233.32" font-size="12" text-anchor="middle" fill="#111827" font-weight="normal">0</text>
<rect x="170" y="216" width="26" height="26" fill="#f9fafb" stroke="#9ca3af" stroke-width="1"/>
<text x="183" y="233.32" font-size="12" text-anchor="middle" fill="#111827" font-weight="normal">0</text>
<rect x="196" y="216" width="26" height="26" fill="#f9fafb" stroke="#9ca3af" stroke-width="1"/>
<text x="209" y="233.32" font-size="12" text-anchor="middle" fill="#111827" font-weight="normal">0</text>
<rect x="222" y="216" width="26" height="26" fill="#f9fafb" stroke="#9ca3af" stroke-width="1"/>
<text x="235" y="233.32" font-size="12" text-anchor="middle" fill="#111827" font-weight="normal">0</text>
<rect x="248" y="216" width="26" height="26" fill="#f9fafb" stroke="#9ca3af" stroke-width="1"/>
<text x="261" y="233.32" font-size="12" text-anchor="middle" fill="#111827" font-weight="normal">0</text>
<text x="196" y="254" font-size="11" text-anchor="middle" fill="#dc2626" font-weight="600">neighbours get 1, then 2, then 4</text>
<text x="196" y="272" font-size="10.5" text-anchor="middle" fill="#6b7280" font-weight="normal">that periodic high / low grid is the artifact</text>
<line x1="460" y1="70" x2="460" y2="268" stroke="#9ca3af" stroke-width="1" stroke-dasharray="4 4"/>
<text x="624" y="72" font-size="12.5" text-anchor="middle" fill="#16a34a" font-weight="600">f = 4, s = 2  ·  divisible</text>
<rect x="546" y="86" width="26" height="26" fill="#fef3c7" stroke="#9ca3af" stroke-width="1"/>
<text x="559" y="103.32" font-size="12" text-anchor="middle" fill="#111827" font-weight="normal">1</text>
<rect x="572" y="86" width="26" height="26" fill="#fef3c7" stroke="#9ca3af" stroke-width="1"/>
<text x="585" y="103.32" font-size="12" text-anchor="middle" fill="#111827" font-weight="normal">1</text>
<rect x="598" y="86" width="26" height="26" fill="#fdba74" stroke="#9ca3af" stroke-width="1"/>
<text x="611" y="103.32" font-size="12" text-anchor="middle" fill="#111827" font-weight="normal">2</text>
<rect x="624" y="86" width="26" height="26" fill="#fdba74" stroke="#9ca3af" stroke-width="1"/>
<text x="637" y="103.32" font-size="12" text-anchor="middle" fill="#111827" font-weight="normal">2</text>
<rect x="650" y="86" width="26" height="26" fill="#fef3c7" stroke="#9ca3af" stroke-width="1"/>
<text x="663" y="103.32" font-size="12" text-anchor="middle" fill="#111827" font-weight="normal">1</text>
<rect x="676" y="86" width="26" height="26" fill="#fef3c7" stroke="#9ca3af" stroke-width="1"/>
<text x="689" y="103.32" font-size="12" text-anchor="middle" fill="#111827" font-weight="normal">1</text>
<rect x="546" y="112" width="26" height="26" fill="#fef3c7" stroke="#9ca3af" stroke-width="1"/>
<text x="559" y="129.32" font-size="12" text-anchor="middle" fill="#111827" font-weight="normal">1</text>
<rect x="572" y="112" width="26" height="26" fill="#fef3c7" stroke="#9ca3af" stroke-width="1"/>
<text x="585" y="129.32" font-size="12" text-anchor="middle" fill="#111827" font-weight="normal">1</text>
<rect x="598" y="112" width="26" height="26" fill="#fdba74" stroke="#9ca3af" stroke-width="1"/>
<text x="611" y="129.32" font-size="12" text-anchor="middle" fill="#111827" font-weight="normal">2</text>
<rect x="624" y="112" width="26" height="26" fill="#fdba74" stroke="#9ca3af" stroke-width="1"/>
<text x="637" y="129.32" font-size="12" text-anchor="middle" fill="#111827" font-weight="normal">2</text>
<rect x="650" y="112" width="26" height="26" fill="#fef3c7" stroke="#9ca3af" stroke-width="1"/>
<text x="663" y="129.32" font-size="12" text-anchor="middle" fill="#111827" font-weight="normal">1</text>
<rect x="676" y="112" width="26" height="26" fill="#fef3c7" stroke="#9ca3af" stroke-width="1"/>
<text x="689" y="129.32" font-size="12" text-anchor="middle" fill="#111827" font-weight="normal">1</text>
<rect x="546" y="138" width="26" height="26" fill="#fdba74" stroke="#9ca3af" stroke-width="1"/>
<text x="559" y="155.32" font-size="12" text-anchor="middle" fill="#111827" font-weight="normal">2</text>
<rect x="572" y="138" width="26" height="26" fill="#fdba74" stroke="#9ca3af" stroke-width="1"/>
<text x="585" y="155.32" font-size="12" text-anchor="middle" fill="#111827" font-weight="normal">2</text>
<rect x="598" y="138" width="26" height="26" fill="#dc2626" stroke="#9ca3af" stroke-width="1"/>
<text x="611" y="155.32" font-size="12" text-anchor="middle" fill="#ffffff" font-weight="normal">4</text>
<rect x="624" y="138" width="26" height="26" fill="#dc2626" stroke="#9ca3af" stroke-width="1"/>
<text x="637" y="155.32" font-size="12" text-anchor="middle" fill="#ffffff" font-weight="normal">4</text>
<rect x="650" y="138" width="26" height="26" fill="#fdba74" stroke="#9ca3af" stroke-width="1"/>
<text x="663" y="155.32" font-size="12" text-anchor="middle" fill="#111827" font-weight="normal">2</text>
<rect x="676" y="138" width="26" height="26" fill="#fdba74" stroke="#9ca3af" stroke-width="1"/>
<text x="689" y="155.32" font-size="12" text-anchor="middle" fill="#111827" font-weight="normal">2</text>
<rect x="546" y="164" width="26" height="26" fill="#fdba74" stroke="#9ca3af" stroke-width="1"/>
<text x="559" y="181.32" font-size="12" text-anchor="middle" fill="#111827" font-weight="normal">2</text>
<rect x="572" y="164" width="26" height="26" fill="#fdba74" stroke="#9ca3af" stroke-width="1"/>
<text x="585" y="181.32" font-size="12" text-anchor="middle" fill="#111827" font-weight="normal">2</text>
<rect x="598" y="164" width="26" height="26" fill="#dc2626" stroke="#9ca3af" stroke-width="1"/>
<text x="611" y="181.32" font-size="12" text-anchor="middle" fill="#ffffff" font-weight="normal">4</text>
<rect x="624" y="164" width="26" height="26" fill="#dc2626" stroke="#9ca3af" stroke-width="1"/>
<text x="637" y="181.32" font-size="12" text-anchor="middle" fill="#ffffff" font-weight="normal">4</text>
<rect x="650" y="164" width="26" height="26" fill="#fdba74" stroke="#9ca3af" stroke-width="1"/>
<text x="663" y="181.32" font-size="12" text-anchor="middle" fill="#111827" font-weight="normal">2</text>
<rect x="676" y="164" width="26" height="26" fill="#fdba74" stroke="#9ca3af" stroke-width="1"/>
<text x="689" y="181.32" font-size="12" text-anchor="middle" fill="#111827" font-weight="normal">2</text>
<rect x="546" y="190" width="26" height="26" fill="#fef3c7" stroke="#9ca3af" stroke-width="1"/>
<text x="559" y="207.32" font-size="12" text-anchor="middle" fill="#111827" font-weight="normal">1</text>
<rect x="572" y="190" width="26" height="26" fill="#fef3c7" stroke="#9ca3af" stroke-width="1"/>
<text x="585" y="207.32" font-size="12" text-anchor="middle" fill="#111827" font-weight="normal">1</text>
<rect x="598" y="190" width="26" height="26" fill="#fdba74" stroke="#9ca3af" stroke-width="1"/>
<text x="611" y="207.32" font-size="12" text-anchor="middle" fill="#111827" font-weight="normal">2</text>
<rect x="624" y="190" width="26" height="26" fill="#fdba74" stroke="#9ca3af" stroke-width="1"/>
<text x="637" y="207.32" font-size="12" text-anchor="middle" fill="#111827" font-weight="normal">2</text>
<rect x="650" y="190" width="26" height="26" fill="#fef3c7" stroke="#9ca3af" stroke-width="1"/>
<text x="663" y="207.32" font-size="12" text-anchor="middle" fill="#111827" font-weight="normal">1</text>
<rect x="676" y="190" width="26" height="26" fill="#fef3c7" stroke="#9ca3af" stroke-width="1"/>
<text x="689" y="207.32" font-size="12" text-anchor="middle" fill="#111827" font-weight="normal">1</text>
<rect x="546" y="216" width="26" height="26" fill="#fef3c7" stroke="#9ca3af" stroke-width="1"/>
<text x="559" y="233.32" font-size="12" text-anchor="middle" fill="#111827" font-weight="normal">1</text>
<rect x="572" y="216" width="26" height="26" fill="#fef3c7" stroke="#9ca3af" stroke-width="1"/>
<text x="585" y="233.32" font-size="12" text-anchor="middle" fill="#111827" font-weight="normal">1</text>
<rect x="598" y="216" width="26" height="26" fill="#fdba74" stroke="#9ca3af" stroke-width="1"/>
<text x="611" y="233.32" font-size="12" text-anchor="middle" fill="#111827" font-weight="normal">2</text>
<rect x="624" y="216" width="26" height="26" fill="#fdba74" stroke="#9ca3af" stroke-width="1"/>
<text x="637" y="233.32" font-size="12" text-anchor="middle" fill="#111827" font-weight="normal">2</text>
<rect x="650" y="216" width="26" height="26" fill="#fef3c7" stroke="#9ca3af" stroke-width="1"/>
<text x="663" y="233.32" font-size="12" text-anchor="middle" fill="#111827" font-weight="normal">1</text>
<rect x="676" y="216" width="26" height="26" fill="#fef3c7" stroke="#9ca3af" stroke-width="1"/>
<text x="689" y="233.32" font-size="12" text-anchor="middle" fill="#111827" font-weight="normal">1</text>
<text x="624" y="254" font-size="11" text-anchor="middle" fill="#16a34a" font-weight="600">interior cells all get 4</text>
<text x="624" y="272" font-size="10.5" text-anchor="middle" fill="#6b7280" font-weight="normal">overlap is uniform, so no checkerboard bias</text>
<text x="460" y="302" font-size="10.5" text-anchor="middle" fill="#6b7280" font-weight="normal">Same four stamp origins. Only the filter size changes. Counts, not values: this is how often each output cell is written.</text>
</g>
</svg>
