<svg xmlns="http://www.w3.org/2000/svg" viewBox="0 0 920 300" width="920" height="300">
<defs>
  <marker id="ah" viewBox="0 0 10 10" refX="9" refY="5" markerWidth="6" markerHeight="6" orient="auto-start-reverse">
    <path d="M0,0 L10,5 L0,10 z" fill="#9ca3af"/>
  </marker>
</defs>
<rect width="920" height="300" fill="#ffffff"/>
<g font-family="Segoe UI, system-ui, -apple-system, Helvetica, Arial, sans-serif" fill="#111827" font-size="12">
<text x="460" y="24" font-size="15" text-anchor="middle" fill="#111827" font-weight="600">Step 5  ·  crop the padding border</text>
<text x="460" y="42" font-size="11.5" text-anchor="middle" fill="#6b7280" font-weight="normal">p = 1 means drop the outer ring; what remains is the 4×4 output</text>
<rect x="80" y="78" width="24" height="24" fill="#fef9c3" stroke="#9ca3af" stroke-width="1"/>
<text x="92" y="93.6" font-size="10" text-anchor="middle" fill="#111827" font-weight="normal">1</text>
<rect x="104" y="78" width="24" height="24" fill="#fef9c3" stroke="#9ca3af" stroke-width="1"/>
<text x="116" y="93.6" font-size="10" text-anchor="middle" fill="#111827" font-weight="normal">1</text>
<rect x="128" y="78" width="24" height="24" fill="#fef9c3" stroke="#9ca3af" stroke-width="1"/>
<text x="140" y="93.6" font-size="10" text-anchor="middle" fill="#111827" font-weight="normal">3</text>
<rect x="152" y="78" width="24" height="24" fill="#fef9c3" stroke="#9ca3af" stroke-width="1"/>
<text x="164" y="93.6" font-size="10" text-anchor="middle" fill="#111827" font-weight="normal">2</text>
<rect x="176" y="78" width="24" height="24" fill="#fef9c3" stroke="#9ca3af" stroke-width="1"/>
<text x="188" y="93.6" font-size="10" text-anchor="middle" fill="#111827" font-weight="normal">2</text>
<rect x="200" y="78" width="24" height="24" fill="#fef9c3" stroke="#9ca3af" stroke-width="1"/>
<text x="212" y="93.6" font-size="10" text-anchor="middle" fill="#111827" font-weight="normal">0</text>
<rect x="80" y="102" width="24" height="24" fill="#fef9c3" stroke="#9ca3af" stroke-width="1"/>
<text x="92" y="117.6" font-size="10" text-anchor="middle" fill="#111827" font-weight="normal">0</text>
<rect x="104" y="102" width="24" height="24" fill="#ffffff" stroke="#9ca3af" stroke-width="1"/>
<text x="116" y="117.6" font-size="10" text-anchor="middle" fill="#111827" font-weight="normal">0</text>
<rect x="128" y="102" width="24" height="24" fill="#ffffff" stroke="#9ca3af" stroke-width="1"/>
<text x="140" y="117.6" font-size="10" text-anchor="middle" fill="#111827" font-weight="normal">0</text>
<rect x="152" y="102" width="24" height="24" fill="#ffffff" stroke="#9ca3af" stroke-width="1"/>
<text x="164" y="117.6" font-size="10" text-anchor="middle" fill="#111827" font-weight="normal">0</text>
<rect x="176" y="102" width="24" height="24" fill="#ffffff" stroke="#9ca3af" stroke-width="1"/>
<text x="188" y="117.6" font-size="10" text-anchor="middle" fill="#111827" font-weight="normal">0</text>
<rect x="200" y="102" width="24" height="24" fill="#fef9c3" stroke="#9ca3af" stroke-width="1"/>
<text x="212" y="117.6" font-size="10" text-anchor="middle" fill="#111827" font-weight="normal">0</text>
<rect x="80" y="126" width="24" height="24" fill="#fef9c3" stroke="#9ca3af" stroke-width="1"/>
<text x="92" y="141.6" font-size="10" text-anchor="middle" fill="#111827" font-weight="normal">2</text>
<rect x="104" y="126" width="24" height="24" fill="#f6caca" stroke="#9ca3af" stroke-width="1"/>
<text x="116" y="141.6" font-size="10" text-anchor="middle" fill="#111827" font-weight="normal">2</text>
<rect x="128" y="126" width="24" height="24" fill="#ee9696" stroke="#9ca3af" stroke-width="1"/>
<text x="140" y="141.6" font-size="10" text-anchor="middle" fill="#111827" font-weight="normal">4</text>
<rect x="152" y="126" width="24" height="24" fill="#f6caca" stroke="#9ca3af" stroke-width="1"/>
<text x="164" y="141.6" font-size="10" text-anchor="middle" fill="#111827" font-weight="normal">2</text>
<rect x="176" y="126" width="24" height="24" fill="#f6caca" stroke="#9ca3af" stroke-width="1"/>
<text x="188" y="141.6" font-size="10" text-anchor="middle" fill="#111827" font-weight="normal">2</text>
<rect x="200" y="126" width="24" height="24" fill="#fef9c3" stroke="#9ca3af" stroke-width="1"/>
<text x="212" y="141.6" font-size="10" text-anchor="middle" fill="#111827" font-weight="normal">0</text>
<rect x="80" y="150" width="24" height="24" fill="#fef9c3" stroke="#9ca3af" stroke-width="1"/>
<text x="92" y="165.6" font-size="10" text-anchor="middle" fill="#111827" font-weight="normal">0</text>
<rect x="104" y="150" width="24" height="24" fill="#ffffff" stroke="#9ca3af" stroke-width="1"/>
<text x="116" y="165.6" font-size="10" text-anchor="middle" fill="#111827" font-weight="normal">0</text>
<rect x="128" y="150" width="24" height="24" fill="#ffffff" stroke="#9ca3af" stroke-width="1"/>
<text x="140" y="165.6" font-size="10" text-anchor="middle" fill="#111827" font-weight="normal">0</text>
<rect x="152" y="150" width="24" height="24" fill="#ffffff" stroke="#9ca3af" stroke-width="1"/>
<text x="164" y="165.6" font-size="10" text-anchor="middle" fill="#111827" font-weight="normal">0</text>
<rect x="176" y="150" width="24" height="24" fill="#ffffff" stroke="#9ca3af" stroke-width="1"/>
<text x="188" y="165.6" font-size="10" text-anchor="middle" fill="#111827" font-weight="normal">0</text>
<rect x="200" y="150" width="24" height="24" fill="#fef9c3" stroke="#9ca3af" stroke-width="1"/>
<text x="212" y="165.6" font-size="10" text-anchor="middle" fill="#111827" font-weight="normal">0</text>
<rect x="80" y="174" width="24" height="24" fill="#fef9c3" stroke="#9ca3af" stroke-width="1"/>
<text x="92" y="189.6" font-size="10" text-anchor="middle" fill="#111827" font-weight="normal">-3</text>
<rect x="104" y="174" width="24" height="24" fill="#b0c6f8" stroke="#9ca3af" stroke-width="1"/>
<text x="116" y="189.6" font-size="10" text-anchor="middle" fill="#111827" font-weight="normal">-3</text>
<rect x="128" y="174" width="24" height="24" fill="#467aee" stroke="#9ca3af" stroke-width="1"/>
<text x="140" y="189.6" font-size="10" text-anchor="middle" fill="#ffffff" font-weight="normal">-7</text>
<rect x="152" y="174" width="24" height="24" fill="#95b3f5" stroke="#9ca3af" stroke-width="1"/>
<text x="164" y="189.6" font-size="10" text-anchor="middle" fill="#111827" font-weight="normal">-4</text>
<rect x="176" y="174" width="24" height="24" fill="#95b3f5" stroke="#9ca3af" stroke-width="1"/>
<text x="188" y="189.6" font-size="10" text-anchor="middle" fill="#111827" font-weight="normal">-4</text>
<rect x="200" y="174" width="24" height="24" fill="#fef9c3" stroke="#9ca3af" stroke-width="1"/>
<text x="212" y="189.6" font-size="10" text-anchor="middle" fill="#111827" font-weight="normal">0</text>
<rect x="80" y="198" width="24" height="24" fill="#fef9c3" stroke="#9ca3af" stroke-width="1"/>
<text x="92" y="213.6" font-size="10" text-anchor="middle" fill="#111827" font-weight="normal">0</text>
<rect x="104" y="198" width="24" height="24" fill="#fef9c3" stroke="#9ca3af" stroke-width="1"/>
<text x="116" y="213.6" font-size="10" text-anchor="middle" fill="#111827" font-weight="normal">0</text>
<rect x="128" y="198" width="24" height="24" fill="#fef9c3" stroke="#9ca3af" stroke-width="1"/>
<text x="140" y="213.6" font-size="10" text-anchor="middle" fill="#111827" font-weight="normal">0</text>
<rect x="152" y="198" width="24" height="24" fill="#fef9c3" stroke="#9ca3af" stroke-width="1"/>
<text x="164" y="213.6" font-size="10" text-anchor="middle" fill="#111827" font-weight="normal">0</text>
<rect x="176" y="198" width="24" height="24" fill="#fef9c3" stroke="#9ca3af" stroke-width="1"/>
<text x="188" y="213.6" font-size="10" text-anchor="middle" fill="#111827" font-weight="normal">0</text>
<rect x="200" y="198" width="24" height="24" fill="#fef9c3" stroke="#9ca3af" stroke-width="1"/>
<text x="212" y="213.6" font-size="10" text-anchor="middle" fill="#111827" font-weight="normal">0</text>
<rect x="104" y="102" width="96" height="96" fill="none" stroke="#dc2626" stroke-width="2.4"/>
<text x="152" y="234" font-size="11" text-anchor="middle" fill="#111827" font-weight="600">padded 6×6</text>
<text x="152" y="250" font-size="10.5" text-anchor="middle" fill="#6b7280" font-weight="normal">yellow ring = padding, discarded</text>
<line x1="240" y1="150" x2="300" y2="150" stroke="#dc2626" stroke-width="1.6" marker-end="url(#ah)"/>
<text x="270" y="138" font-size="11" text-anchor="middle" fill="#dc2626" font-weight="600">crop p = 1</text>
<rect x="560" y="102" width="28" height="28" fill="#ffffff" stroke="#9ca3af" stroke-width="1"/>
<text x="574" y="119.96" font-size="11" text-anchor="middle" fill="#111827" font-weight="normal">0</text>
<rect x="588" y="102" width="28" height="28" fill="#ffffff" stroke="#9ca3af" stroke-width="1"/>
<text x="602" y="119.96" font-size="11" text-anchor="middle" fill="#111827" font-weight="normal">0</text>
<rect x="616" y="102" width="28" height="28" fill="#ffffff" stroke="#9ca3af" stroke-width="1"/>
<text x="630" y="119.96" font-size="11" text-anchor="middle" fill="#111827" font-weight="normal">0</text>
<rect x="644" y="102" width="28" height="28" fill="#ffffff" stroke="#9ca3af" stroke-width="1"/>
<text x="658" y="119.96" font-size="11" text-anchor="middle" fill="#111827" font-weight="normal">0</text>
<rect x="560" y="130" width="28" height="28" fill="#f6caca" stroke="#9ca3af" stroke-width="1"/>
<text x="574" y="147.96" font-size="11" text-anchor="middle" fill="#111827" font-weight="normal">2</text>
<rect x="588" y="130" width="28" height="28" fill="#ee9696" stroke="#9ca3af" stroke-width="1"/>
<text x="602" y="147.96" font-size="11" text-anchor="middle" fill="#111827" font-weight="normal">4</text>
<rect x="616" y="130" width="28" height="28" fill="#f6caca" stroke="#9ca3af" stroke-width="1"/>
<text x="630" y="147.96" font-size="11" text-anchor="middle" fill="#111827" font-weight="normal">2</text>
<rect x="644" y="130" width="28" height="28" fill="#f6caca" stroke="#9ca3af" stroke-width="1"/>
<text x="658" y="147.96" font-size="11" text-anchor="middle" fill="#111827" font-weight="normal">2</text>
<rect x="560" y="158" width="28" height="28" fill="#ffffff" stroke="#9ca3af" stroke-width="1"/>
<text x="574" y="175.96" font-size="11" text-anchor="middle" fill="#111827" font-weight="normal">0</text>
<rect x="588" y="158" width="28" height="28" fill="#ffffff" stroke="#9ca3af" stroke-width="1"/>
<text x="602" y="175.96" font-size="11" text-anchor="middle" fill="#111827" font-weight="normal">0</text>
<rect x="616" y="158" width="28" height="28" fill="#ffffff" stroke="#9ca3af" stroke-width="1"/>
<text x="630" y="175.96" font-size="11" text-anchor="middle" fill="#111827" font-weight="normal">0</text>
<rect x="644" y="158" width="28" height="28" fill="#ffffff" stroke="#9ca3af" stroke-width="1"/>
<text x="658" y="175.96" font-size="11" text-anchor="middle" fill="#111827" font-weight="normal">0</text>
<rect x="560" y="186" width="28" height="28" fill="#b0c6f8" stroke="#9ca3af" stroke-width="1"/>
<text x="574" y="203.96" font-size="11" text-anchor="middle" fill="#111827" font-weight="normal">-3</text>
<rect x="588" y="186" width="28" height="28" fill="#467aee" stroke="#9ca3af" stroke-width="1"/>
<text x="602" y="203.96" font-size="11" text-anchor="middle" fill="#ffffff" font-weight="normal">-7</text>
<rect x="616" y="186" width="28" height="28" fill="#95b3f5" stroke="#9ca3af" stroke-width="1"/>
<text x="630" y="203.96" font-size="11" text-anchor="middle" fill="#111827" font-weight="normal">-4</text>
<rect x="644" y="186" width="28" height="28" fill="#95b3f5" stroke="#9ca3af" stroke-width="1"/>
<text x="658" y="203.96" font-size="11" text-anchor="middle" fill="#111827" font-weight="normal">-4</text>
<text x="616" y="226" font-size="11.5" text-anchor="middle" fill="#111827" font-weight="600">4×4 output</text>
<text x="616" y="244" font-size="10.5" text-anchor="middle" fill="#6b7280" font-weight="normal">this is what the layer returns</text>
<text x="460" y="284" font-size="10.5" text-anchor="middle" fill="#6b7280" font-weight="normal">The padding was applied to the output canvas before pasting, which is why it is cropped at the end rather than added to the input.</text>
</g>
</svg>
