<svg xmlns="http://www.w3.org/2000/svg" viewBox="0 0 920 420" width="920" height="420">
<defs>
  <marker id="ah" viewBox="0 0 10 10" refX="9" refY="5" markerWidth="6" markerHeight="6" orient="auto-start-reverse">
    <path d="M0,0 L10,5 L0,10 z" fill="#9ca3af"/>
  </marker>
</defs>
<rect width="920" height="420" fill="#ffffff"/>
<g font-family="Segoe UI, system-ui, -apple-system, Helvetica, Arial, sans-serif" fill="#111827" font-size="12">
<text x="460" y="24" font-size="15" text-anchor="middle" fill="#111827" font-weight="600">Region proposals: the R-CNN family</text>
<text x="460" y="42" font-size="11.5" text-anchor="middle" fill="#6b7280" font-weight="normal">classify a few thousand plausible regions instead of every window</text>
<text x="20" y="106" font-size="12.5" text-anchor="start" fill="#111827" font-weight="600">R-CNN</text>
<rect x="168" y="78" width="150" height="44" rx="4" fill="#e5e7eb" stroke="#6b7280" stroke-width="1.4"/>
<text x="243" y="105" font-size="11" text-anchor="middle" fill="#111827" font-weight="normal">image</text>
<line x1="321" y1="100" x2="339" y2="100" stroke="#9ca3af" stroke-width="1.4" marker-end="url(#ah)"/>
<rect x="346" y="78" width="150" height="44" rx="4" fill="#bfdbfe" stroke="#2563eb" stroke-width="1.4"/>
<text x="421" y="105" font-size="11" text-anchor="middle" fill="#111827" font-weight="normal">segment ~2k blobs</text>
<line x1="499" y1="100" x2="517" y2="100" stroke="#9ca3af" stroke-width="1.4" marker-end="url(#ah)"/>
<rect x="524" y="78" width="150" height="44" rx="4" fill="#fed7aa" stroke="#ea580c" stroke-width="1.4"/>
<text x="599" y="105" font-size="11" text-anchor="middle" fill="#111827" font-weight="normal">classify each crop</text>
<line x1="677" y1="100" x2="695" y2="100" stroke="#9ca3af" stroke-width="1.4" marker-end="url(#ah)"/>
<rect x="702" y="78" width="110" height="44" rx="4" fill="#fecaca" stroke="#dc2626" stroke-width="1.4"/>
<text x="757" y="105" font-size="11" text-anchor="middle" fill="#111827" font-weight="normal">box + class</text>
<text x="168" y="138" font-size="10.5" text-anchor="start" fill="#6b7280" font-weight="normal">slow: one ConvNet pass per proposal</text>
<text x="20" y="184" font-size="12.5" text-anchor="start" fill="#111827" font-weight="600">Fast R-CNN</text>
<rect x="168" y="156" width="150" height="44" rx="4" fill="#e5e7eb" stroke="#6b7280" stroke-width="1.4"/>
<text x="243" y="183" font-size="11" text-anchor="middle" fill="#111827" font-weight="normal">image</text>
<line x1="321" y1="178" x2="339" y2="178" stroke="#9ca3af" stroke-width="1.4" marker-end="url(#ah)"/>
<rect x="346" y="156" width="150" height="44" rx="4" fill="#bfdbfe" stroke="#2563eb" stroke-width="1.4"/>
<text x="421" y="183" font-size="11" text-anchor="middle" fill="#111827" font-weight="normal">segment ~2k blobs</text>
<line x1="499" y1="178" x2="517" y2="178" stroke="#9ca3af" stroke-width="1.4" marker-end="url(#ah)"/>
<rect x="524" y="156" width="150" height="44" rx="4" fill="#bbf7d0" stroke="#16a34a" stroke-width="1.4"/>
<text x="599" y="183" font-size="11" text-anchor="middle" fill="#111827" font-weight="normal">one conv pass, shared</text>
<line x1="677" y1="178" x2="695" y2="178" stroke="#9ca3af" stroke-width="1.4" marker-end="url(#ah)"/>
<rect x="702" y="156" width="110" height="44" rx="4" fill="#fecaca" stroke="#dc2626" stroke-width="1.4"/>
<text x="757" y="183" font-size="11" text-anchor="middle" fill="#111827" font-weight="normal">box + class</text>
<text x="168" y="216" font-size="10.5" text-anchor="start" fill="#6b7280" font-weight="normal">classification is convolutional; proposals still slow</text>
<text x="20" y="262" font-size="12.5" text-anchor="start" fill="#111827" font-weight="600">Faster R-CNN</text>
<rect x="168" y="234" width="150" height="44" rx="4" fill="#e5e7eb" stroke="#6b7280" stroke-width="1.4"/>
<text x="243" y="261" font-size="11" text-anchor="middle" fill="#111827" font-weight="normal">image</text>
<line x1="321" y1="256" x2="339" y2="256" stroke="#9ca3af" stroke-width="1.4" marker-end="url(#ah)"/>
<rect x="346" y="234" width="150" height="44" rx="4" fill="#bbf7d0" stroke="#16a34a" stroke-width="1.4"/>
<text x="421" y="261" font-size="11" text-anchor="middle" fill="#111827" font-weight="normal">CNN region proposals</text>
<line x1="499" y1="256" x2="517" y2="256" stroke="#9ca3af" stroke-width="1.4" marker-end="url(#ah)"/>
<rect x="524" y="234" width="150" height="44" rx="4" fill="#bbf7d0" stroke="#16a34a" stroke-width="1.4"/>
<text x="599" y="261" font-size="11" text-anchor="middle" fill="#111827" font-weight="normal">shared features</text>
<line x1="677" y1="256" x2="695" y2="256" stroke="#9ca3af" stroke-width="1.4" marker-end="url(#ah)"/>
<rect x="702" y="234" width="110" height="44" rx="4" fill="#fecaca" stroke="#dc2626" stroke-width="1.4"/>
<text x="757" y="261" font-size="11" text-anchor="middle" fill="#111827" font-weight="normal">box + class</text>
<text x="168" y="294" font-size="10.5" text-anchor="start" fill="#6b7280" font-weight="normal">both stages are ConvNets; still slower than YOLO</text>
<text x="20" y="340" font-size="12.5" text-anchor="start" fill="#111827" font-weight="600">YOLO  (one-stage)</text>
<rect x="168" y="312" width="150" height="44" rx="4" fill="#e5e7eb" stroke="#6b7280" stroke-width="1.4"/>
<text x="243" y="339" font-size="11" text-anchor="middle" fill="#111827" font-weight="normal">image</text>
<line x1="321" y1="334" x2="339" y2="334" stroke="#9ca3af" stroke-width="1.4" marker-end="url(#ah)"/>
<rect x="346" y="312" width="150" height="44" rx="4" fill="#bbf7d0" stroke="#16a34a" stroke-width="1.4"/>
<text x="421" y="339" font-size="11" text-anchor="middle" fill="#111827" font-weight="normal">one ConvNet pass</text>
<line x1="499" y1="334" x2="517" y2="334" stroke="#9ca3af" stroke-width="1.4" marker-end="url(#ah)"/>
<rect x="524" y="312" width="110" height="44" rx="4" fill="#fecaca" stroke="#dc2626" stroke-width="1.4"/>
<text x="579" y="339" font-size="11" text-anchor="middle" fill="#111827" font-weight="normal">all boxes + classes</text>
<text x="168" y="372" font-size="10.5" text-anchor="start" fill="#6b7280" font-weight="normal">no proposal stage at all</text>
</g>
</svg>
