<svg xmlns="http://www.w3.org/2000/svg" viewBox="0 0 920 300" width="920" height="300">
<defs>
  <marker id="ah" viewBox="0 0 10 10" refX="9" refY="5" markerWidth="7" markerHeight="7" orient="auto-start-reverse">
    <path d="M0,0 L10,5 L0,10 z" fill="#9ca3af"/>
  </marker>
  <marker id="ah-fecaca" viewBox="0 0 10 10" refX="9" refY="5" markerWidth="7" markerHeight="7" orient="auto-start-reverse">
    <path d="M0,0 L10,5 L0,10 z" fill="#fecaca"/>
  </marker>
  <marker id="ah-bbf7d0" viewBox="0 0 10 10" refX="9" refY="5" markerWidth="7" markerHeight="7" orient="auto-start-reverse">
    <path d="M0,0 L10,5 L0,10 z" fill="#bbf7d0"/>
  </marker>
  <marker id="ah-2563eb" viewBox="0 0 10 10" refX="9" refY="5" markerWidth="7" markerHeight="7" orient="auto-start-reverse">
    <path d="M0,0 L10,5 L0,10 z" fill="#2563eb"/>
  </marker>
  <marker id="ah-7c3aed" viewBox="0 0 10 10" refX="9" refY="5" markerWidth="7" markerHeight="7" orient="auto-start-reverse">
    <path d="M0,0 L10,5 L0,10 z" fill="#7c3aed"/>
  </marker>
  <marker id="ah-dc2626" viewBox="0 0 10 10" refX="9" refY="5" markerWidth="7" markerHeight="7" orient="auto-start-reverse">
    <path d="M0,0 L10,5 L0,10 z" fill="#dc2626"/>
  </marker>
  <marker id="ah-ca8a04" viewBox="0 0 10 10" refX="9" refY="5" markerWidth="7" markerHeight="7" orient="auto-start-reverse">
    <path d="M0,0 L10,5 L0,10 z" fill="#ca8a04"/>
  </marker>
  <marker id="ah-16a34a" viewBox="0 0 10 10" refX="9" refY="5" markerWidth="7" markerHeight="7" orient="auto-start-reverse">
    <path d="M0,0 L10,5 L0,10 z" fill="#16a34a"/>
  </marker>
  <marker id="ah-111827" viewBox="0 0 10 10" refX="9" refY="5" markerWidth="7" markerHeight="7" orient="auto-start-reverse">
    <path d="M0,0 L10,5 L0,10 z" fill="#111827"/>
  </marker>
  <marker id="ah-9ca3af" viewBox="0 0 10 10" refX="9" refY="5" markerWidth="7" markerHeight="7" orient="auto-start-reverse">
    <path d="M0,0 L10,5 L0,10 z" fill="#9ca3af"/>
  </marker>
  <marker id="ah-ea580c" viewBox="0 0 10 10" refX="9" refY="5" markerWidth="7" markerHeight="7" orient="auto-start-reverse">
    <path d="M0,0 L10,5 L0,10 z" fill="#ea580c"/>
  </marker>
  <marker id="ah-db2777" viewBox="0 0 10 10" refX="9" refY="5" markerWidth="7" markerHeight="7" orient="auto-start-reverse">
    <path d="M0,0 L10,5 L0,10 z" fill="#db2777"/>
  </marker>
  <marker id="ah-6b7280" viewBox="0 0 10 10" refX="9" refY="5" markerWidth="7" markerHeight="7" orient="auto-start-reverse">
    <path d="M0,0 L10,5 L0,10 z" fill="#6b7280"/>
  </marker>
</defs>
<rect width="920" height="300" fill="#ffffff"/>
<g font-family="Segoe UI, system-ui, -apple-system, Helvetica, Arial, sans-serif" fill="#111827" font-size="12">
<text x="460" y="24" font-size="15" text-anchor="middle" fill="#111827" font-weight="600">Why a softmax over identities does not solve one-shot learning</text>
<text x="460" y="42" font-size="11.5" text-anchor="middle" fill="#6b7280" font-weight="normal">too little data, and the output layer has to be rebuilt every time the roster changes</text>
<rect x="36" y="68" width="410" height="178" rx="6" fill="#fef2f2" stroke="#fecaca" stroke-width="1.2"/>
<text x="241" y="92" font-size="13" text-anchor="middle" fill="#111827" font-weight="600">Softmax classifier</text>
<circle cx="90" cy="150" r="22" fill="#bfdbfe" stroke="#2563eb" stroke-width="1.7"/>
<circle cx="82.96" cy="146.04" r="2.42" fill="#2563eb" stroke="#2563eb" stroke-width="0.4"/>
<circle cx="97.04" cy="146.04" r="2.42" fill="#2563eb" stroke="#2563eb" stroke-width="0.4"/>
<path d="M 82.96,154.84 Q 90,161 97.04,154.84" fill="none" stroke="#2563eb" stroke-width="1.6"/>
<line x1="122" y1="150" x2="168" y2="150" stroke="#9ca3af" stroke-width="1.4" marker-end="url(#ah-9ca3af)"/>
<rect x="172" y="128" width="90" height="44" rx="3" fill="#bbf7d0" stroke="#16a34a" stroke-width="1.4"/>
<text x="217" y="154" font-size="11" text-anchor="middle" fill="#111827" font-weight="600">ConvNet</text>
<line x1="266" y1="150" x2="304" y2="150" stroke="#9ca3af" stroke-width="1.4" marker-end="url(#ah-9ca3af)"/>
<rect x="308" y="118" width="112" height="64" rx="3" fill="#fecaca" stroke="#dc2626" stroke-width="1.4"/>
<text x="364" y="138" font-size="10" text-anchor="middle" fill="#111827" font-weight="normal">softmax</text>
<text x="364" y="151" font-size="10" text-anchor="middle" fill="#111827" font-weight="normal">Kian / Danielle /</text>
<text x="364" y="164" font-size="10" text-anchor="middle" fill="#111827" font-weight="normal">Younes / Tian / none</text>
<text x="241" y="228" font-size="10.5" text-anchor="middle" fill="#dc2626" font-weight="normal">one example per class  ·  retrain when K grows</text>
<rect x="474" y="68" width="410" height="178" rx="6" fill="#f0fdf4" stroke="#bbf7d0" stroke-width="1.2"/>
<text x="679" y="92" font-size="13" text-anchor="middle" fill="#111827" font-weight="600">Similarity function  d</text>
<circle cx="530" cy="150" r="20" fill="#bfdbfe" stroke="#2563eb" stroke-width="1.7"/>
<circle cx="523.6" cy="146.4" r="2.2" fill="#2563eb" stroke="#2563eb" stroke-width="0.4"/>
<circle cx="536.4" cy="146.4" r="2.2" fill="#2563eb" stroke="#2563eb" stroke-width="0.4"/>
<path d="M 523.6,154.4 Q 530,160 536.4,154.4" fill="none" stroke="#2563eb" stroke-width="1.6"/>
<circle cx="610" cy="150" r="20" fill="#bbf7d0" stroke="#16a34a" stroke-width="1.7"/>
<circle cx="603.6" cy="146.4" r="2.2" fill="#16a34a" stroke="#16a34a" stroke-width="0.4"/>
<circle cx="616.4" cy="146.4" r="2.2" fill="#16a34a" stroke="#16a34a" stroke-width="0.4"/>
<path d="M 603.6,154.4 Q 610,160 616.4,154.4" fill="none" stroke="#16a34a" stroke-width="1.6"/>
<line x1="640" y1="150" x2="688" y2="150" stroke="#9ca3af" stroke-width="1.4" marker-end="url(#ah-9ca3af)"/>
<rect x="692" y="128" width="160" height="44" rx="3" fill="#fed7aa" stroke="#ea580c" stroke-width="1.4"/>
<text x="772" y="154" font-size="13" text-anchor="middle" fill="#111827" font-weight="600">d(x₁, x₂)  ≷  τ</text>
<text x="679" y="228" font-size="10.5" text-anchor="middle" fill="#16a34a" font-weight="normal">any pair  ·  new people just get added to the database</text>
<text x="460" y="282" font-size="10.5" text-anchor="middle" fill="#6b7280" font-weight="normal">Learn d once. At test time you never update the network — you only compare encodings.</text>
</g>
</svg>
