<svg xmlns="http://www.w3.org/2000/svg" viewBox="0 0 720 300" width="720" height="300">
<defs>
  <marker id="ah" viewBox="0 0 10 10" refX="9" refY="5" markerWidth="7" markerHeight="7" orient="auto-start-reverse">
    <path d="M0,0 L10,5 L0,10 z" fill="#9ca3af"/>
  </marker>
  <marker id="ah-2563eb" viewBox="0 0 10 10" refX="9" refY="5" markerWidth="7" markerHeight="7" orient="auto-start-reverse">
    <path d="M0,0 L10,5 L0,10 z" fill="#2563eb"/>
  </marker>
  <marker id="ah-7c3aed" viewBox="0 0 10 10" refX="9" refY="5" markerWidth="7" markerHeight="7" orient="auto-start-reverse">
    <path d="M0,0 L10,5 L0,10 z" fill="#7c3aed"/>
  </marker>
  <marker id="ah-dc2626" viewBox="0 0 10 10" refX="9" refY="5" markerWidth="7" markerHeight="7" orient="auto-start-reverse">
    <path d="M0,0 L10,5 L0,10 z" fill="#dc2626"/>
  </marker>
  <marker id="ah-ca8a04" viewBox="0 0 10 10" refX="9" refY="5" markerWidth="7" markerHeight="7" orient="auto-start-reverse">
    <path d="M0,0 L10,5 L0,10 z" fill="#ca8a04"/>
  </marker>
  <marker id="ah-16a34a" viewBox="0 0 10 10" refX="9" refY="5" markerWidth="7" markerHeight="7" orient="auto-start-reverse">
    <path d="M0,0 L10,5 L0,10 z" fill="#16a34a"/>
  </marker>
  <marker id="ah-111827" viewBox="0 0 10 10" refX="9" refY="5" markerWidth="7" markerHeight="7" orient="auto-start-reverse">
    <path d="M0,0 L10,5 L0,10 z" fill="#111827"/>
  </marker>
  <marker id="ah-9ca3af" viewBox="0 0 10 10" refX="9" refY="5" markerWidth="7" markerHeight="7" orient="auto-start-reverse">
    <path d="M0,0 L10,5 L0,10 z" fill="#9ca3af"/>
  </marker>
  <marker id="ah-ea580c" viewBox="0 0 10 10" refX="9" refY="5" markerWidth="7" markerHeight="7" orient="auto-start-reverse">
    <path d="M0,0 L10,5 L0,10 z" fill="#ea580c"/>
  </marker>
  <marker id="ah-db2777" viewBox="0 0 10 10" refX="9" refY="5" markerWidth="7" markerHeight="7" orient="auto-start-reverse">
    <path d="M0,0 L10,5 L0,10 z" fill="#db2777"/>
  </marker>
  <marker id="ah-6b7280" viewBox="0 0 10 10" refX="9" refY="5" markerWidth="7" markerHeight="7" orient="auto-start-reverse">
    <path d="M0,0 L10,5 L0,10 z" fill="#6b7280"/>
  </marker>
</defs>
<rect width="720" height="300" fill="#ffffff"/>
<g font-family="Segoe UI, system-ui, -apple-system, Helvetica, Arial, sans-serif" fill="#111827" font-size="12">
<text x="360" y="24" font-size="15" text-anchor="middle" fill="#111827" font-weight="600">Grid search wastes budget on useless axes</text>
<text x="360" y="42" font-size="11.5" text-anchor="middle" fill="#6b7280" font-weight="normal">random search samples the important axis more densely</text>
<rect x="40" y="70" width="310" height="190" rx="6" fill="#f9fafb" stroke="#9ca3af" stroke-width="1.2"/>
<text x="48" y="60" font-size="12.5" text-anchor="start" fill="#111827" font-weight="600">grid</text>
<rect x="380" y="70" width="310" height="190" rx="6" fill="#f9fafb" stroke="#9ca3af" stroke-width="1.2"/>
<text x="388" y="60" font-size="12.5" text-anchor="start" fill="#111827" font-weight="600">random</text>
<circle cx="80" cy="100" r="5" fill="#fed7aa" stroke="#ea580c" stroke-width="1.3"/>
<circle cx="140" cy="100" r="5" fill="#fed7aa" stroke="#ea580c" stroke-width="1.3"/>
<circle cx="200" cy="100" r="5" fill="#fed7aa" stroke="#ea580c" stroke-width="1.3"/>
<circle cx="260" cy="100" r="5" fill="#fed7aa" stroke="#ea580c" stroke-width="1.3"/>
<circle cx="80" cy="136" r="5" fill="#fed7aa" stroke="#ea580c" stroke-width="1.3"/>
<circle cx="140" cy="136" r="5" fill="#fed7aa" stroke="#ea580c" stroke-width="1.3"/>
<circle cx="200" cy="136" r="5" fill="#fed7aa" stroke="#ea580c" stroke-width="1.3"/>
<circle cx="260" cy="136" r="5" fill="#fed7aa" stroke="#ea580c" stroke-width="1.3"/>
<circle cx="80" cy="172" r="5" fill="#fed7aa" stroke="#ea580c" stroke-width="1.3"/>
<circle cx="140" cy="172" r="5" fill="#fed7aa" stroke="#ea580c" stroke-width="1.3"/>
<circle cx="200" cy="172" r="5" fill="#fed7aa" stroke="#ea580c" stroke-width="1.3"/>
<circle cx="260" cy="172" r="5" fill="#fed7aa" stroke="#ea580c" stroke-width="1.3"/>
<circle cx="80" cy="208" r="5" fill="#fed7aa" stroke="#ea580c" stroke-width="1.3"/>
<circle cx="140" cy="208" r="5" fill="#fed7aa" stroke="#ea580c" stroke-width="1.3"/>
<circle cx="200" cy="208" r="5" fill="#fed7aa" stroke="#ea580c" stroke-width="1.3"/>
<circle cx="260" cy="208" r="5" fill="#fed7aa" stroke="#ea580c" stroke-width="1.3"/>
<text x="195" y="250" font-size="11" text-anchor="middle" fill="#6b7280" font-weight="normal">4 × 4 = 16 runs, many redundant</text>
<circle cx="440" cy="165" r="5" fill="#bbf7d0" stroke="#16a34a" stroke-width="1.3"/>
<circle cx="487.5" cy="180.6" r="5" fill="#bbf7d0" stroke="#16a34a" stroke-width="1.3"/>
<circle cx="530" cy="153.3" r="5" fill="#bbf7d0" stroke="#16a34a" stroke-width="1.3"/>
<circle cx="427.5" cy="171.5" r="5" fill="#bbf7d0" stroke="#16a34a" stroke-width="1.3"/>
<circle cx="630" cy="162.4" r="5" fill="#bbf7d0" stroke="#16a34a" stroke-width="1.3"/>
<circle cx="567.5" cy="191" r="5" fill="#bbf7d0" stroke="#16a34a" stroke-width="1.3"/>
<circle cx="462.5" cy="157.2" r="5" fill="#bbf7d0" stroke="#16a34a" stroke-width="1.3"/>
<circle cx="595" cy="175.4" r="5" fill="#bbf7d0" stroke="#16a34a" stroke-width="1.3"/>
<circle cx="547.5" cy="146.8" r="5" fill="#bbf7d0" stroke="#16a34a" stroke-width="1.3"/>
<circle cx="642.5" cy="167.6" r="5" fill="#bbf7d0" stroke="#16a34a" stroke-width="1.3"/>
<circle cx="507.5" cy="185.8" r="5" fill="#bbf7d0" stroke="#16a34a" stroke-width="1.3"/>
<circle cx="450" cy="161.1" r="5" fill="#bbf7d0" stroke="#16a34a" stroke-width="1.3"/>
<text x="535" y="250" font-size="11" text-anchor="middle" fill="#6b7280" font-weight="normal">same 12 runs, better coverage of α</text>
</g>
</svg>
