<svg xmlns="http://www.w3.org/2000/svg" viewBox="0 0 720 240" width="720" height="240">
<defs>
  <marker id="ah" viewBox="0 0 10 10" refX="9" refY="5" markerWidth="7" markerHeight="7" orient="auto-start-reverse">
    <path d="M0,0 L10,5 L0,10 z" fill="#9ca3af"/>
  </marker>
  <marker id="ah-2563eb" viewBox="0 0 10 10" refX="9" refY="5" markerWidth="7" markerHeight="7" orient="auto-start-reverse">
    <path d="M0,0 L10,5 L0,10 z" fill="#2563eb"/>
  </marker>
  <marker id="ah-7c3aed" viewBox="0 0 10 10" refX="9" refY="5" markerWidth="7" markerHeight="7" orient="auto-start-reverse">
    <path d="M0,0 L10,5 L0,10 z" fill="#7c3aed"/>
  </marker>
  <marker id="ah-dc2626" viewBox="0 0 10 10" refX="9" refY="5" markerWidth="7" markerHeight="7" orient="auto-start-reverse">
    <path d="M0,0 L10,5 L0,10 z" fill="#dc2626"/>
  </marker>
  <marker id="ah-ca8a04" viewBox="0 0 10 10" refX="9" refY="5" markerWidth="7" markerHeight="7" orient="auto-start-reverse">
    <path d="M0,0 L10,5 L0,10 z" fill="#ca8a04"/>
  </marker>
  <marker id="ah-16a34a" viewBox="0 0 10 10" refX="9" refY="5" markerWidth="7" markerHeight="7" orient="auto-start-reverse">
    <path d="M0,0 L10,5 L0,10 z" fill="#16a34a"/>
  </marker>
  <marker id="ah-111827" viewBox="0 0 10 10" refX="9" refY="5" markerWidth="7" markerHeight="7" orient="auto-start-reverse">
    <path d="M0,0 L10,5 L0,10 z" fill="#111827"/>
  </marker>
  <marker id="ah-9ca3af" viewBox="0 0 10 10" refX="9" refY="5" markerWidth="7" markerHeight="7" orient="auto-start-reverse">
    <path d="M0,0 L10,5 L0,10 z" fill="#9ca3af"/>
  </marker>
  <marker id="ah-ea580c" viewBox="0 0 10 10" refX="9" refY="5" markerWidth="7" markerHeight="7" orient="auto-start-reverse">
    <path d="M0,0 L10,5 L0,10 z" fill="#ea580c"/>
  </marker>
  <marker id="ah-db2777" viewBox="0 0 10 10" refX="9" refY="5" markerWidth="7" markerHeight="7" orient="auto-start-reverse">
    <path d="M0,0 L10,5 L0,10 z" fill="#db2777"/>
  </marker>
  <marker id="ah-6b7280" viewBox="0 0 10 10" refX="9" refY="5" markerWidth="7" markerHeight="7" orient="auto-start-reverse">
    <path d="M0,0 L10,5 L0,10 z" fill="#6b7280"/>
  </marker>
</defs>
<rect width="720" height="240" fill="#ffffff"/>
<g font-family="Segoe UI, system-ui, -apple-system, Helvetica, Arial, sans-serif" fill="#111827" font-size="12">
<text x="360" y="24" font-size="15" text-anchor="middle" fill="#111827" font-weight="600">Panda versus caviar</text>
<text x="360" y="42" font-size="11.5" text-anchor="middle" fill="#6b7280" font-weight="normal">one carefully babysat run, or many runs in parallel</text>
<rect x="40" y="80" width="300" height="120" rx="6" fill="#f9fafb" stroke="#9ca3af" stroke-width="1.2"/>
<text x="48" y="70" font-size="12.5" text-anchor="start" fill="#111827" font-weight="600">panda  ·  scarce compute</text>
<rect x="90" y="120" width="200" height="44" rx="3" fill="#fecaca" stroke="#dc2626" stroke-width="1.4"/>
<text x="190" y="146" font-size="12" text-anchor="middle" fill="#111827" font-weight="normal">one model, nudged daily</text>
<rect x="380" y="80" width="300" height="120" rx="6" fill="#f9fafb" stroke="#9ca3af" stroke-width="1.2"/>
<text x="388" y="70" font-size="12.5" text-anchor="start" fill="#111827" font-weight="600">caviar  ·  lots of GPUs</text>
<rect x="410" y="110" width="64" height="20" rx="3" fill="#bbf7d0" stroke="#16a34a" stroke-width="1.4"/>
<rect x="490" y="110" width="64" height="20" rx="3" fill="#fed7aa" stroke="#ea580c" stroke-width="1.4"/>
<rect x="570" y="110" width="64" height="20" rx="3" fill="#bbf7d0" stroke="#16a34a" stroke-width="1.4"/>
<rect x="410" y="136" width="64" height="20" rx="3" fill="#fed7aa" stroke="#ea580c" stroke-width="1.4"/>
<rect x="490" y="136" width="64" height="20" rx="3" fill="#bbf7d0" stroke="#16a34a" stroke-width="1.4"/>
<rect x="570" y="136" width="64" height="20" rx="3" fill="#fed7aa" stroke="#ea580c" stroke-width="1.4"/>
<rect x="410" y="162" width="64" height="20" rx="3" fill="#bbf7d0" stroke="#16a34a" stroke-width="1.4"/>
<rect x="490" y="162" width="64" height="20" rx="3" fill="#fed7aa" stroke="#ea580c" stroke-width="1.4"/>
<rect x="570" y="162" width="64" height="20" rx="3" fill="#bbf7d0" stroke="#16a34a" stroke-width="1.4"/>
</g>
</svg>
