<svg xmlns="http://www.w3.org/2000/svg" viewBox="0 0 720 300" width="720" height="300">
<defs>
  <marker id="ah" viewBox="0 0 10 10" refX="9" refY="5" markerWidth="7" markerHeight="7" orient="auto-start-reverse">
    <path d="M0,0 L10,5 L0,10 z" fill="#9ca3af"/>
  </marker>
  <marker id="ah-2563eb" viewBox="0 0 10 10" refX="9" refY="5" markerWidth="7" markerHeight="7" orient="auto-start-reverse">
    <path d="M0,0 L10,5 L0,10 z" fill="#2563eb"/>
  </marker>
  <marker id="ah-7c3aed" viewBox="0 0 10 10" refX="9" refY="5" markerWidth="7" markerHeight="7" orient="auto-start-reverse">
    <path d="M0,0 L10,5 L0,10 z" fill="#7c3aed"/>
  </marker>
  <marker id="ah-dc2626" viewBox="0 0 10 10" refX="9" refY="5" markerWidth="7" markerHeight="7" orient="auto-start-reverse">
    <path d="M0,0 L10,5 L0,10 z" fill="#dc2626"/>
  </marker>
  <marker id="ah-ca8a04" viewBox="0 0 10 10" refX="9" refY="5" markerWidth="7" markerHeight="7" orient="auto-start-reverse">
    <path d="M0,0 L10,5 L0,10 z" fill="#ca8a04"/>
  </marker>
  <marker id="ah-16a34a" viewBox="0 0 10 10" refX="9" refY="5" markerWidth="7" markerHeight="7" orient="auto-start-reverse">
    <path d="M0,0 L10,5 L0,10 z" fill="#16a34a"/>
  </marker>
  <marker id="ah-111827" viewBox="0 0 10 10" refX="9" refY="5" markerWidth="7" markerHeight="7" orient="auto-start-reverse">
    <path d="M0,0 L10,5 L0,10 z" fill="#111827"/>
  </marker>
  <marker id="ah-9ca3af" viewBox="0 0 10 10" refX="9" refY="5" markerWidth="7" markerHeight="7" orient="auto-start-reverse">
    <path d="M0,0 L10,5 L0,10 z" fill="#9ca3af"/>
  </marker>
  <marker id="ah-db2777" viewBox="0 0 10 10" refX="9" refY="5" markerWidth="7" markerHeight="7" orient="auto-start-reverse">
    <path d="M0,0 L10,5 L0,10 z" fill="#db2777"/>
  </marker>
  <marker id="ah-6b7280" viewBox="0 0 10 10" refX="9" refY="5" markerWidth="7" markerHeight="7" orient="auto-start-reverse">
    <path d="M0,0 L10,5 L0,10 z" fill="#6b7280"/>
  </marker>
</defs>
<rect width="720" height="300" fill="#ffffff"/>
<g font-family="Segoe UI, system-ui, -apple-system, Helvetica, Arial, sans-serif" fill="#111827" font-size="12">
<text x="360" y="24" font-size="15" text-anchor="middle" fill="#111827" font-weight="600">Vanishing and exploding activations</text>
<text x="360" y="42" font-size="11.5" text-anchor="middle" fill="#6b7280" font-weight="normal">repeated multiply by 0.5 or 1.5, layer after layer</text>
<line x1="70" y1="230" x2="660" y2="230" stroke="#111827" stroke-width="1.4"/>
<line x1="70" y1="230" x2="70" y2="70" stroke="#111827" stroke-width="1.4"/>
<text x="365" y="258" font-size="11.5" text-anchor="middle" fill="#111827" font-weight="normal">layer ℓ</text>
<text x="30" y="150" font-size="11.5" text-anchor="middle" fill="#111827" font-weight="normal" transform="rotate(-90 30 150)">|activation|  (log)</text>
<polyline points="70.0,138.6 123.6,134.5 177.3,130.5 230.9,126.5 284.5,122.5 338.2,118.4 391.8,114.4 445.5,110.4 499.1,106.4 552.7,102.3 606.4,98.3 660.0,94.3" fill="none" stroke="#dc2626" stroke-width="2.4"/>
<polyline points="70.0,138.6 123.6,145.5 177.3,152.3 230.9,159.2 284.5,166.1 338.2,173.0 391.8,179.9 445.5,186.7 499.1,193.6 552.7,200.5 606.4,207.4 660.0,214.3" fill="none" stroke="#2563eb" stroke-width="2.4"/>
<text x="652" y="88" font-size="12" text-anchor="end" fill="#dc2626" font-weight="600">W ≈ 1.5 I   exploding</text>
<text x="652" y="108" font-size="12" text-anchor="end" fill="#2563eb" font-weight="600">W ≈ 0.5 I   vanishing</text>
</g>
</svg>
