<svg xmlns="http://www.w3.org/2000/svg" viewBox="0 0 680 300" width="680" height="300">
<defs>
  <marker id="ah" viewBox="0 0 10 10" refX="9" refY="5" markerWidth="7" markerHeight="7" orient="auto-start-reverse">
    <path d="M0,0 L10,5 L0,10 z" fill="#9ca3af"/>
  </marker>
  <marker id="ah-2563eb" viewBox="0 0 10 10" refX="9" refY="5" markerWidth="7" markerHeight="7" orient="auto-start-reverse">
    <path d="M0,0 L10,5 L0,10 z" fill="#2563eb"/>
  </marker>
  <marker id="ah-7c3aed" viewBox="0 0 10 10" refX="9" refY="5" markerWidth="7" markerHeight="7" orient="auto-start-reverse">
    <path d="M0,0 L10,5 L0,10 z" fill="#7c3aed"/>
  </marker>
  <marker id="ah-dc2626" viewBox="0 0 10 10" refX="9" refY="5" markerWidth="7" markerHeight="7" orient="auto-start-reverse">
    <path d="M0,0 L10,5 L0,10 z" fill="#dc2626"/>
  </marker>
  <marker id="ah-ca8a04" viewBox="0 0 10 10" refX="9" refY="5" markerWidth="7" markerHeight="7" orient="auto-start-reverse">
    <path d="M0,0 L10,5 L0,10 z" fill="#ca8a04"/>
  </marker>
  <marker id="ah-16a34a" viewBox="0 0 10 10" refX="9" refY="5" markerWidth="7" markerHeight="7" orient="auto-start-reverse">
    <path d="M0,0 L10,5 L0,10 z" fill="#16a34a"/>
  </marker>
  <marker id="ah-111827" viewBox="0 0 10 10" refX="9" refY="5" markerWidth="7" markerHeight="7" orient="auto-start-reverse">
    <path d="M0,0 L10,5 L0,10 z" fill="#111827"/>
  </marker>
  <marker id="ah-9ca3af" viewBox="0 0 10 10" refX="9" refY="5" markerWidth="7" markerHeight="7" orient="auto-start-reverse">
    <path d="M0,0 L10,5 L0,10 z" fill="#9ca3af"/>
  </marker>
  <marker id="ah-db2777" viewBox="0 0 10 10" refX="9" refY="5" markerWidth="7" markerHeight="7" orient="auto-start-reverse">
    <path d="M0,0 L10,5 L0,10 z" fill="#db2777"/>
  </marker>
  <marker id="ah-6b7280" viewBox="0 0 10 10" refX="9" refY="5" markerWidth="7" markerHeight="7" orient="auto-start-reverse">
    <path d="M0,0 L10,5 L0,10 z" fill="#6b7280"/>
  </marker>
</defs>
<rect width="680" height="300" fill="#ffffff"/>
<g font-family="Segoe UI, system-ui, -apple-system, Helvetica, Arial, sans-serif" fill="#111827" font-size="12">
<text x="340" y="24" font-size="15" text-anchor="middle" fill="#111827" font-weight="600">The derivative is the limit of secants</text>
<text x="340" y="42" font-size="11.5" text-anchor="middle" fill="#6b7280" font-weight="normal">shrink h until the chord matches the tangent</text>
<line x1="70" y1="230" x2="620" y2="230" stroke="#111827" stroke-width="1.4"/>
<line x1="70" y1="230" x2="70" y2="70" stroke="#111827" stroke-width="1.4"/>
<text x="345" y="258" font-size="11.5" text-anchor="middle" fill="#111827" font-weight="normal">x</text>
<text x="30" y="150" font-size="11.5" text-anchor="middle" fill="#111827" font-weight="normal" transform="rotate(-90 30 150)">f(x)</text>
<polyline points="70.0,200.0 81.0,200.0 92.0,199.8 103.0,199.6 114.0,199.3 125.0,198.9 136.0,198.4 147.0,197.8 158.0,197.2 169.0,196.4 180.0,195.6 191.0,194.7 202.0,193.7 213.0,192.6 224.0,191.4 235.0,190.1 246.0,188.7 257.0,187.3 268.0,185.7 279.0,184.1 290.0,182.4 301.0,180.6 312.0,178.7 323.0,176.7 334.0,174.7 345.0,172.5 356.0,170.3 367.0,167.9 378.0,165.5 389.0,163.0 400.0,160.4 411.0,157.7 422.0,154.9 433.0,152.1 444.0,149.1 455.0,146.1 466.0,143.0 477.0,139.8 488.0,136.5 499.0,133.1 510.0,129.6 521.0,126.0 532.0,122.4 543.0,118.6 554.0,114.8 565.0,110.9 576.0,106.9 587.0,102.8 598.0,98.6 609.0,94.4 620.0,90.0" fill="none" stroke="#16a34a" stroke-width="2.2"/>
<line x1="262.5" y1="186.525" x2="482.5" y2="138.125" stroke="#dc2626" stroke-width="2" stroke-dasharray="5 4"/>
<circle cx="262.5" cy="186.525" r="4" fill="#2563eb" stroke="#2563eb" stroke-width="1.4"/>
<circle cx="482.5" cy="138.125" r="4" fill="#dc2626" stroke="#dc2626" stroke-width="1.4"/>
<text x="262.5" y="174.525" font-size="12" text-anchor="middle" fill="#2563eb" font-weight="600">x</text>
<text x="482.5" y="126.125" font-size="12" text-anchor="middle" fill="#dc2626" font-weight="600">x + h</text>
</g>
</svg>
