<svg xmlns="http://www.w3.org/2000/svg" viewBox="0 0 720 300" width="720" height="300">
<defs>
  <marker id="ah" viewBox="0 0 10 10" refX="9" refY="5" markerWidth="6" markerHeight="6" orient="auto-start-reverse">
    <path d="M0,0 L10,5 L0,10 z" fill="#9ca3af"/>
  </marker>
</defs>
<rect width="720" height="300" fill="#ffffff"/>
<g font-family="Segoe UI, system-ui, -apple-system, Helvetica, Arial, sans-serif" fill="#111827" font-size="12">
<text x="360" y="24" font-size="15" text-anchor="middle" fill="#111827" font-weight="600">Softmax turns logits into a probability vector</text>
<text x="360" y="42" font-size="11.5" text-anchor="middle" fill="#6b7280" font-weight="normal">exponentiate, then divide by the sum so the entries add to 1</text>
<text x="110" y="78" font-size="12" text-anchor="middle" fill="#111827" font-weight="600">logits z</text>
<text x="320" y="78" font-size="12" text-anchor="middle" fill="#111827" font-weight="600">eᶻ</text>
<text x="560" y="78" font-size="12" text-anchor="middle" fill="#111827" font-weight="600">softmax a</text>
<rect x="80" y="100" width="90" height="36" rx="3" fill="#fed7aa" stroke="#ea580c" stroke-width="1.4"/>
<text x="125" y="122" font-size="13" text-anchor="middle" fill="#111827" font-weight="normal">2.0</text>
<text x="188" y="124" font-size="11" text-anchor="start" fill="#6b7280" font-weight="normal">cat</text>
<line x1="220" y1="118" x2="280" y2="118" stroke="#9ca3af" stroke-width="1.4" marker-end="url(#ah)"/>
<rect x="290" y="100" width="90" height="36" rx="3" fill="#bbf7d0" stroke="#16a34a" stroke-width="1.4"/>
<text x="335" y="122" font-size="13" text-anchor="middle" fill="#111827" font-weight="normal">7.39</text>
<line x1="392" y1="118" x2="490" y2="118" stroke="#9ca3af" stroke-width="1.4" marker-end="url(#ah)"/>
<rect x="500" y="100" width="132.26" height="36" rx="3" fill="#fecaca" stroke="#dc2626" stroke-width="1.4"/>
<text x="566.13" y="124" font-size="12" text-anchor="middle" fill="#111827" font-weight="600">0.66</text>
<rect x="80" y="148" width="90" height="36" rx="3" fill="#fed7aa" stroke="#ea580c" stroke-width="1.4"/>
<text x="125" y="170" font-size="13" text-anchor="middle" fill="#111827" font-weight="normal">1.0</text>
<text x="188" y="172" font-size="11" text-anchor="start" fill="#6b7280" font-weight="normal">dog</text>
<line x1="220" y1="166" x2="280" y2="166" stroke="#9ca3af" stroke-width="1.4" marker-end="url(#ah)"/>
<rect x="290" y="148" width="90" height="36" rx="3" fill="#bbf7d0" stroke="#16a34a" stroke-width="1.4"/>
<text x="335" y="170" font-size="13" text-anchor="middle" fill="#111827" font-weight="normal">2.72</text>
<line x1="392" y1="166" x2="490" y2="166" stroke="#9ca3af" stroke-width="1.4" marker-end="url(#ah)"/>
<rect x="500" y="148" width="73.9406" height="36" rx="3" fill="#fecaca" stroke="#dc2626" stroke-width="1.4"/>
<text x="536.97" y="172" font-size="12" text-anchor="middle" fill="#111827" font-weight="600">0.24</text>
<rect x="80" y="196" width="90" height="36" rx="3" fill="#fed7aa" stroke="#ea580c" stroke-width="1.4"/>
<text x="125" y="218" font-size="13" text-anchor="middle" fill="#111827" font-weight="normal">0.1</text>
<text x="188" y="220" font-size="11" text-anchor="start" fill="#6b7280" font-weight="normal">bird</text>
<line x1="220" y1="214" x2="280" y2="214" stroke="#9ca3af" stroke-width="1.4" marker-end="url(#ah)"/>
<rect x="290" y="196" width="90" height="36" rx="3" fill="#bbf7d0" stroke="#16a34a" stroke-width="1.4"/>
<text x="335" y="218" font-size="13" text-anchor="middle" fill="#111827" font-weight="normal">1.11</text>
<line x1="392" y1="214" x2="490" y2="214" stroke="#9ca3af" stroke-width="1.4" marker-end="url(#ah)"/>
<rect x="500" y="196" width="53.7992" height="36" rx="3" fill="#fecaca" stroke="#dc2626" stroke-width="1.4"/>
<text x="526.9" y="220" font-size="12" text-anchor="middle" fill="#111827" font-weight="600">0.10</text>
<text x="360" y="272" font-size="10.5" text-anchor="middle" fill="#6b7280" font-weight="normal">The three probabilities sum to 1.00. Softmax is for mutually exclusive classes.</text>
</g>
</svg>
