<svg xmlns="http://www.w3.org/2000/svg" viewBox="0 0 720 280" width="720" height="280">
<defs>
  <marker id="ah" viewBox="0 0 10 10" refX="9" refY="5" markerWidth="7" markerHeight="7" orient="auto-start-reverse">
    <path d="M0,0 L10,5 L0,10 z" fill="#9ca3af"/>
  </marker>
  <marker id="ah-2563eb" viewBox="0 0 10 10" refX="9" refY="5" markerWidth="7" markerHeight="7" orient="auto-start-reverse">
    <path d="M0,0 L10,5 L0,10 z" fill="#2563eb"/>
  </marker>
  <marker id="ah-7c3aed" viewBox="0 0 10 10" refX="9" refY="5" markerWidth="7" markerHeight="7" orient="auto-start-reverse">
    <path d="M0,0 L10,5 L0,10 z" fill="#7c3aed"/>
  </marker>
  <marker id="ah-dc2626" viewBox="0 0 10 10" refX="9" refY="5" markerWidth="7" markerHeight="7" orient="auto-start-reverse">
    <path d="M0,0 L10,5 L0,10 z" fill="#dc2626"/>
  </marker>
  <marker id="ah-ca8a04" viewBox="0 0 10 10" refX="9" refY="5" markerWidth="7" markerHeight="7" orient="auto-start-reverse">
    <path d="M0,0 L10,5 L0,10 z" fill="#ca8a04"/>
  </marker>
  <marker id="ah-16a34a" viewBox="0 0 10 10" refX="9" refY="5" markerWidth="7" markerHeight="7" orient="auto-start-reverse">
    <path d="M0,0 L10,5 L0,10 z" fill="#16a34a"/>
  </marker>
  <marker id="ah-111827" viewBox="0 0 10 10" refX="9" refY="5" markerWidth="7" markerHeight="7" orient="auto-start-reverse">
    <path d="M0,0 L10,5 L0,10 z" fill="#111827"/>
  </marker>
  <marker id="ah-9ca3af" viewBox="0 0 10 10" refX="9" refY="5" markerWidth="7" markerHeight="7" orient="auto-start-reverse">
    <path d="M0,0 L10,5 L0,10 z" fill="#9ca3af"/>
  </marker>
  <marker id="ah-db2777" viewBox="0 0 10 10" refX="9" refY="5" markerWidth="7" markerHeight="7" orient="auto-start-reverse">
    <path d="M0,0 L10,5 L0,10 z" fill="#db2777"/>
  </marker>
  <marker id="ah-6b7280" viewBox="0 0 10 10" refX="9" refY="5" markerWidth="7" markerHeight="7" orient="auto-start-reverse">
    <path d="M0,0 L10,5 L0,10 z" fill="#6b7280"/>
  </marker>
</defs>
<rect width="720" height="280" fill="#ffffff"/>
<g font-family="Segoe UI, system-ui, -apple-system, Helvetica, Arial, sans-serif" fill="#111827" font-size="12">
<text x="360" y="24" font-size="15" text-anchor="middle" fill="#111827" font-weight="600">Multitask: one backbone, several labels</text>
<text x="360" y="42" font-size="11.5" text-anchor="middle" fill="#6b7280" font-weight="normal">independent sigmoids, not a softmax — several objects can be present</text>
<rect x="40" y="110" width="120" height="70" rx="3" fill="#e5e7eb" stroke="#6b7280" stroke-width="1.4"/>
<text x="100" y="149" font-size="11" text-anchor="middle" fill="#111827" font-weight="normal">image</text>
<line x1="168" y1="145" x2="210" y2="145" stroke="#9ca3af" stroke-width="1.4" marker-end="url(#ah-9ca3af)"/>
<rect x="218" y="90" width="150" height="110" rx="3" fill="#bbf7d0" stroke="#16a34a" stroke-width="1.4"/>
<text x="293" y="149" font-size="11" text-anchor="middle" fill="#111827" font-weight="normal">shared net</text>
<line x1="376" y1="145" x2="430" y2="98" stroke="#9ca3af" stroke-width="1.4" marker-end="url(#ah-9ca3af)"/>
<rect x="438" y="80" width="130" height="36" rx="3" fill="#fecaca" stroke="#dc2626" stroke-width="1.4"/>
<text x="503" y="102" font-size="12" text-anchor="middle" fill="#111827" font-weight="normal">pedestrian</text>
<line x1="376" y1="145" x2="430" y2="148" stroke="#9ca3af" stroke-width="1.4" marker-end="url(#ah-9ca3af)"/>
<rect x="438" y="130" width="130" height="36" rx="3" fill="#fecaca" stroke="#dc2626" stroke-width="1.4"/>
<text x="503" y="152" font-size="12" text-anchor="middle" fill="#111827" font-weight="normal">car</text>
<line x1="376" y1="145" x2="430" y2="198" stroke="#9ca3af" stroke-width="1.4" marker-end="url(#ah-9ca3af)"/>
<rect x="438" y="180" width="130" height="36" rx="3" fill="#fecaca" stroke="#dc2626" stroke-width="1.4"/>
<text x="503" y="202" font-size="12" text-anchor="middle" fill="#111827" font-weight="normal">light</text>
</g>
</svg>
